<?xml version="1.0" encoding="UTF-8"?>
<svg xmlns="http://www.w3.org/2000/svg" xmlns:xlink="http://www.w3.org/1999/xlink" width="1440pt" height="1079.999946pt" viewBox="0 0 1440 1079.999946" version="1.2">
<defs>
<filter id="alpha" filterUnits="objectBoundingBox" x="0%" y="0%" width="100%" height="100%">
  <feColorMatrix type="matrix" in="SourceGraphic" values="0 0 0 0 1 0 0 0 0 1 0 0 0 0 1 0 0 0 1 0"/>
</filter>
<mask id="mask0">
  <g filter="url(#alpha)">
<rect x="0" y="0" width="1440" height="1079.999946" style="fill:rgb(0%,0%,0%);fill-opacity:0.4471;stroke:none;"/>
  </g>
</mask>
<clipPath id="clip2">
  <path d="M 44 132 L 857 132 L 857 677 L 44 677 Z M 44 132 "/>
</clipPath>
<clipPath id="clip3">
  <path d="M 127.035156 0.398438 L 1055.671875 194.710938 L 926.949219 809.890625 L -1.6875 615.578125 Z M 127.035156 0.398438 "/>
</clipPath>
<clipPath id="clip4">
  <path d="M 127.035156 0.398438 L 1055.671875 194.710938 L 926.949219 809.890625 L -1.6875 615.578125 Z M 127.035156 0.398438 "/>
</clipPath>
<clipPath id="clip1">
  <rect x="0" y="0" width="857" height="677"/>
</clipPath>
<g id="surface5" clip-path="url(#clip1)">
<g clip-path="url(#clip2)" clip-rule="nonzero">
<g clip-path="url(#clip3)" clip-rule="nonzero">
<g clip-path="url(#clip4)" clip-rule="nonzero">
<path style=" stroke:none;fill-rule:nonzero;fill:rgb(39.608765%,63.529968%,80.778503%);fill-opacity:1;" d="M 253.910156 303.59375 C 270.527344 306.859375 286.847656 311.539062 302.671875 317.59375 C 327.136719 326.71875 352.808594 332.09375 378.835938 333.742188 C 402.84375 334.96875 426.441406 332.097656 449.933594 327.730469 C 467.054688 324.5625 479.859375 314.792969 489.820312 301.476562 C 502.445312 284.496094 514.304688 267.144531 526.003906 249.550781 C 536.714844 233.648438 545.9375 216.800781 558.820312 202.621094 C 576.535156 182.484375 599.152344 167.175781 624.464844 158.125 C 643.113281 151.6875 661.441406 144.765625 680.132812 138.125 C 693.582031 133.34375 707.769531 132.09375 721.902344 132.097656 C 756.492188 132.164062 789.242188 139.015625 820.242188 155.207031 C 856.769531 174.242188 891.609375 196.300781 924.5625 221.339844 C 948.941406 239.945312 967.808594 263.722656 984.632812 289.1875 C 993.988281 302.957031 1001.632812 317.851562 1007.207031 333.574219 C 1013.40625 351.328125 1015.546875 370.339844 1012.914062 388.988281 C 1010.183594 409.09375 1006.6875 428.828125 996.804688 446.800781 C 977.660156 481.828125 950.136719 507.503906 911.039062 517.890625 C 896.257812 521.96875 880.53125 523.53125 865.085938 524.730469 C 830.960938 527.503906 797.59375 535.714844 766.082031 549.164062 C 742.261719 559.160156 721.230469 573.957031 700.476562 589.445312 C 677.925781 606.457031 655.898438 624.003906 632.550781 639.792969 C 598.894531 662.5 563.203125 681.824219 524.214844 693.707031 C 501.917969 700.4375 479.394531 705.21875 456.15625 704.363281 C 415.746094 702.871094 380.957031 688.628906 354.667969 656.964844 C 339.796875 639.296875 325.90625 620.988281 311.480469 603.203125 C 298.625 587.007812 285.722656 571.019531 269.191406 558.277344 C 250.769531 543.449219 228.742188 533.777344 205.484375 529.964844 C 187.890625 527.339844 170.125 525.519531 152.648438 523.339844 C 133.148438 520.738281 113.945312 516.71875 95.832031 508.5 C 63.597656 494.160156 47.867188 468.503906 45.132812 434.175781 C 42.859375 402.683594 53.152344 374.667969 70.148438 348.898438 C 78.484375 336.296875 88.828125 325.171875 100.65625 316.039062 C 116.964844 303.628906 135.765625 298.492188 155.832031 296.363281 C 178.050781 294.046875 200.027344 295.902344 221.953125 299.015625 Z M 253.910156 303.59375 "/>
</g>
</g>
</g>
</g>
<mask id="mask1">
  <g filter="url(#alpha)">
<rect x="0" y="0" width="1440" height="1079.999946" style="fill:rgb(0%,0%,0%);fill-opacity:0.349;stroke:none;"/>
  </g>
</mask>
<clipPath id="clip6">
  <path d="M 138 0 L 873 0 L 873 611 L 138 611 Z M 138 0 "/>
</clipPath>
<clipPath id="clip7">
  <path d="M 973.035156 -80.105469 L 563.9375 775.910156 L -3.128906 504.902344 L 405.96875 -351.113281 Z M 973.035156 -80.105469 "/>
</clipPath>
<clipPath id="clip8">
  <path d="M 563.78125 776.238281 L 972.878906 -79.78125 L 405.8125 -350.785156 L -3.285156 505.230469 Z M 563.78125 776.238281 "/>
</clipPath>
<clipPath id="clip5">
  <rect x="0" y="0" width="973" height="775"/>
</clipPath>
<g id="surface8" clip-path="url(#clip5)">
<g clip-path="url(#clip6)" clip-rule="nonzero">
<g clip-path="url(#clip7)" clip-rule="nonzero">
<g clip-path="url(#clip8)" clip-rule="nonzero">
<path style=" stroke:none;fill-rule:nonzero;fill:rgb(100%,100%,100%);fill-opacity:1;" d="M 399.792969 491.40625 C 407.28125 476.214844 413.464844 460.402344 418.253906 444.148438 C 425.847656 419.167969 437.15625 395.503906 451.640625 373.8125 C 465.234375 353.988281 481.835938 336.972656 499.5625 320.953125 C 512.472656 309.269531 528.003906 305.019531 544.636719 305.183594 C 565.792969 305.453125 586.777344 306.554688 607.863281 307.933594 C 627.003906 309.070312 645.992188 311.964844 665.082031 310.328125 C 691.835938 308.464844 717.730469 299.78125 740.285156 285.15625 C 756.714844 274.238281 773.34375 263.875 789.960938 253.046875 C 801.921875 245.257812 811.527344 234.742188 820.101562 223.503906 C 841.039062 195.972656 855.464844 165.785156 861.410156 131.316406 C 868.445312 90.734375 872.054688 49.65625 872.152344 8.273438 C 872.160156 -22.394531 864.707031 -51.820312 854.679688 -80.648438 C 849.410156 -96.441406 842.214844 -111.554688 833.097656 -125.523438 C 822.75 -141.226562 808.9375 -154.46875 792.515625 -163.6875 C 774.878906 -173.71875 757.074219 -182.914062 736.789062 -185.972656 C 697.335938 -192.007812 660.222656 -185.710938 628.242188 -160.941406 C 616.03125 -151.667969 605.242188 -140.113281 594.917969 -128.570312 C 572.003906 -103.128906 545.230469 -81.589844 515.417969 -64.707031 C 493.019531 -51.835938 468.492188 -44.101562 443.589844 -37.003906 C 416.382812 -29.40625 389.070312 -22.546875 362.351562 -13.570312 C 323.878906 -0.597656 286.859375 16.042969 253.753906 39.820312 C 234.875 53.457031 217.410156 68.457031 203.984375 87.449219 C 180.648438 120.472656 170.855469 156.765625 180.070312 196.875 C 185.089844 219.417969 191.210938 241.570312 196.59375 263.828125 C 201.664062 283.871094 206.542969 303.832031 206.636719 324.703125 C 207.242188 348.339844 201.5625 371.71875 190.480469 392.515625 C 181.890625 408.097656 172.554688 423.320312 163.679688 438.535156 C 153.917969 455.613281 145.457031 473.316406 141 492.699219 C 132.835938 527.023438 143.679688 555.097656 169.308594 578.101562 C 192.957031 599.015625 221.46875 607.835938 252.265625 609.964844 C 267.339844 610.988281 282.464844 609.519531 296.894531 605.660156 C 316.660156 600.226562 332.152344 588.402344 346.023438 573.746094 C 361.34375 557.492188 373.203125 538.898438 384.035156 519.582031 Z M 399.792969 491.40625 "/>
</g>
</g>
</g>
</g>
<mask id="mask2">
  <g filter="url(#alpha)">
<rect x="0" y="0" width="1440" height="1079.999946" style="fill:rgb(0%,0%,0%);fill-opacity:0.498;stroke:none;"/>
  </g>
</mask>
<clipPath id="clip10">
  <path d="M 160 639 L 212 639 L 212 721 L 160 721 Z M 160 639 "/>
</clipPath>
<clipPath id="clip11">
  <path d="M 0.84375 53.804688 L 377.242188 -0.195312 L 478.960938 708.792969 L 102.5625 762.792969 Z M 0.84375 53.804688 "/>
</clipPath>
<clipPath id="clip12">
  <path d="M 0.84375 53.804688 L 377.242188 -0.195312 L 478.960938 708.792969 L 102.5625 762.792969 Z M 0.84375 53.804688 "/>
</clipPath>
<clipPath id="clip13">
  <path d="M 344 597 L 402 597 L 402 698 L 344 698 Z M 344 597 "/>
</clipPath>
<clipPath id="clip14">
  <path d="M 0.84375 53.804688 L 377.242188 -0.195312 L 478.960938 708.792969 L 102.5625 762.792969 Z M 0.84375 53.804688 "/>
</clipPath>
<clipPath id="clip15">
  <path d="M 0.84375 53.804688 L 377.242188 -0.195312 L 478.960938 708.792969 L 102.5625 762.792969 Z M 0.84375 53.804688 "/>
</clipPath>
<clipPath id="clip16">
  <path d="M 218 453 L 275 453 L 275 537 L 218 537 Z M 218 453 "/>
</clipPath>
<clipPath id="clip17">
  <path d="M 0.84375 53.804688 L 377.242188 -0.195312 L 478.960938 708.792969 L 102.5625 762.792969 Z M 0.84375 53.804688 "/>
</clipPath>
<clipPath id="clip18">
  <path d="M 0.84375 53.804688 L 377.242188 -0.195312 L 478.960938 708.792969 L 102.5625 762.792969 Z M 0.84375 53.804688 "/>
</clipPath>
<clipPath id="clip19">
  <path d="M 276 649 L 330 649 L 330 721 L 276 721 Z M 276 649 "/>
</clipPath>
<clipPath id="clip20">
  <path d="M 0.84375 53.804688 L 377.242188 -0.195312 L 478.960938 708.792969 L 102.5625 762.792969 Z M 0.84375 53.804688 "/>
</clipPath>
<clipPath id="clip21">
  <path d="M 0.84375 53.804688 L 377.242188 -0.195312 L 478.960938 708.792969 L 102.5625 762.792969 Z M 0.84375 53.804688 "/>
</clipPath>
<clipPath id="clip22">
  <path d="M 114 433 L 184 433 L 184 513 L 114 513 Z M 114 433 "/>
</clipPath>
<clipPath id="clip23">
  <path d="M 0.84375 53.804688 L 377.242188 -0.195312 L 478.960938 708.792969 L 102.5625 762.792969 Z M 0.84375 53.804688 "/>
</clipPath>
<clipPath id="clip24">
  <path d="M 0.84375 53.804688 L 377.242188 -0.195312 L 478.960938 708.792969 L 102.5625 762.792969 Z M 0.84375 53.804688 "/>
</clipPath>
<clipPath id="clip25">
  <path d="M 266 549 L 319 549 L 319 626 L 266 626 Z M 266 549 "/>
</clipPath>
<clipPath id="clip26">
  <path d="M 0.84375 53.804688 L 377.242188 -0.195312 L 478.960938 708.792969 L 102.5625 762.792969 Z M 0.84375 53.804688 "/>
</clipPath>
<clipPath id="clip27">
  <path d="M 0.84375 53.804688 L 377.242188 -0.195312 L 478.960938 708.792969 L 102.5625 762.792969 Z M 0.84375 53.804688 "/>
</clipPath>
<clipPath id="clip28">
  <path d="M 236 359 L 283 359 L 283 454 L 236 454 Z M 236 359 "/>
</clipPath>
<clipPath id="clip29">
  <path d="M 0.84375 53.804688 L 377.242188 -0.195312 L 478.960938 708.792969 L 102.5625 762.792969 Z M 0.84375 53.804688 "/>
</clipPath>
<clipPath id="clip30">
  <path d="M 0.84375 53.804688 L 377.242188 -0.195312 L 478.960938 708.792969 L 102.5625 762.792969 Z M 0.84375 53.804688 "/>
</clipPath>
<clipPath id="clip31">
  <path d="M 416 630 L 464 630 L 464 712 L 416 712 Z M 416 630 "/>
</clipPath>
<clipPath id="clip32">
  <path d="M 0.84375 53.804688 L 377.242188 -0.195312 L 478.960938 708.792969 L 102.5625 762.792969 Z M 0.84375 53.804688 "/>
</clipPath>
<clipPath id="clip33">
  <path d="M 0.84375 53.804688 L 377.242188 -0.195312 L 478.960938 708.792969 L 102.5625 762.792969 Z M 0.84375 53.804688 "/>
</clipPath>
<clipPath id="clip34">
  <path d="M 307 485 L 362 485 L 362 560 L 307 560 Z M 307 485 "/>
</clipPath>
<clipPath id="clip35">
  <path d="M 0.84375 53.804688 L 377.242188 -0.195312 L 478.960938 708.792969 L 102.5625 762.792969 Z M 0.84375 53.804688 "/>
</clipPath>
<clipPath id="clip36">
  <path d="M 0.84375 53.804688 L 377.242188 -0.195312 L 478.960938 708.792969 L 102.5625 762.792969 Z M 0.84375 53.804688 "/>
</clipPath>
<clipPath id="clip37">
  <path d="M 166 361 L 212 361 L 212 432 L 166 432 Z M 166 361 "/>
</clipPath>
<clipPath id="clip38">
  <path d="M 0.84375 53.804688 L 377.242188 -0.195312 L 478.960938 708.792969 L 102.5625 762.792969 Z M 0.84375 53.804688 "/>
</clipPath>
<clipPath id="clip39">
  <path d="M 0.84375 53.804688 L 377.242188 -0.195312 L 478.960938 708.792969 L 102.5625 762.792969 Z M 0.84375 53.804688 "/>
</clipPath>
<clipPath id="clip40">
  <path d="M 398 527 L 462 527 L 462 598 L 398 598 Z M 398 527 "/>
</clipPath>
<clipPath id="clip41">
  <path d="M 0.84375 53.804688 L 377.242188 -0.195312 L 478.960938 708.792969 L 102.5625 762.792969 Z M 0.84375 53.804688 "/>
</clipPath>
<clipPath id="clip42">
  <path d="M 0.84375 53.804688 L 377.242188 -0.195312 L 478.960938 708.792969 L 102.5625 762.792969 Z M 0.84375 53.804688 "/>
</clipPath>
<clipPath id="clip43">
  <path d="M 343 325 L 400 325 L 400 397 L 343 397 Z M 343 325 "/>
</clipPath>
<clipPath id="clip44">
  <path d="M 0.84375 53.804688 L 377.242188 -0.195312 L 478.960938 708.792969 L 102.5625 762.792969 Z M 0.84375 53.804688 "/>
</clipPath>
<clipPath id="clip45">
  <path d="M 0.84375 53.804688 L 377.242188 -0.195312 L 478.960938 708.792969 L 102.5625 762.792969 Z M 0.84375 53.804688 "/>
</clipPath>
<clipPath id="clip46">
  <path d="M 219 622 L 261 622 L 261 698 L 219 698 Z M 219 622 "/>
</clipPath>
<clipPath id="clip47">
  <path d="M 0.84375 53.804688 L 377.242188 -0.195312 L 478.960938 708.792969 L 102.5625 762.792969 Z M 0.84375 53.804688 "/>
</clipPath>
<clipPath id="clip48">
  <path d="M 0.84375 53.804688 L 377.242188 -0.195312 L 478.960938 708.792969 L 102.5625 762.792969 Z M 0.84375 53.804688 "/>
</clipPath>
<clipPath id="clip49">
  <path d="M 190 25 L 249 25 L 249 99 L 190 99 Z M 190 25 "/>
</clipPath>
<clipPath id="clip50">
  <path d="M 0.84375 53.804688 L 377.242188 -0.195312 L 478.960938 708.792969 L 102.5625 762.792969 Z M 0.84375 53.804688 "/>
</clipPath>
<clipPath id="clip51">
  <path d="M 0.84375 53.804688 L 377.242188 -0.195312 L 478.960938 708.792969 L 102.5625 762.792969 Z M 0.84375 53.804688 "/>
</clipPath>
<clipPath id="clip52">
  <path d="M 63 336 L 119 336 L 119 413 L 63 413 Z M 63 336 "/>
</clipPath>
<clipPath id="clip53">
  <path d="M 0.84375 53.804688 L 377.242188 -0.195312 L 478.960938 708.792969 L 102.5625 762.792969 Z M 0.84375 53.804688 "/>
</clipPath>
<clipPath id="clip54">
  <path d="M 0.84375 53.804688 L 377.242188 -0.195312 L 478.960938 708.792969 L 102.5625 762.792969 Z M 0.84375 53.804688 "/>
</clipPath>
<clipPath id="clip55">
  <path d="M 127 92 L 182 92 L 182 153 L 127 153 Z M 127 92 "/>
</clipPath>
<clipPath id="clip56">
  <path d="M 0.84375 53.804688 L 377.242188 -0.195312 L 478.960938 708.792969 L 102.5625 762.792969 Z M 0.84375 53.804688 "/>
</clipPath>
<clipPath id="clip57">
  <path d="M 0.84375 53.804688 L 377.242188 -0.195312 L 478.960938 708.792969 L 102.5625 762.792969 Z M 0.84375 53.804688 "/>
</clipPath>
<clipPath id="clip58">
  <path d="M 174 534 L 224 534 L 224 599 L 174 599 Z M 174 534 "/>
</clipPath>
<clipPath id="clip59">
  <path d="M 0.84375 53.804688 L 377.242188 -0.195312 L 478.960938 708.792969 L 102.5625 762.792969 Z M 0.84375 53.804688 "/>
</clipPath>
<clipPath id="clip60">
  <path d="M 0.84375 53.804688 L 377.242188 -0.195312 L 478.960938 708.792969 L 102.5625 762.792969 Z M 0.84375 53.804688 "/>
</clipPath>
<clipPath id="clip61">
  <path d="M 181 213 L 232 213 L 232 282 L 181 282 Z M 181 213 "/>
</clipPath>
<clipPath id="clip62">
  <path d="M 0.84375 53.804688 L 377.242188 -0.195312 L 478.960938 708.792969 L 102.5625 762.792969 Z M 0.84375 53.804688 "/>
</clipPath>
<clipPath id="clip63">
  <path d="M 0.84375 53.804688 L 377.242188 -0.195312 L 478.960938 708.792969 L 102.5625 762.792969 Z M 0.84375 53.804688 "/>
</clipPath>
<clipPath id="clip64">
  <path d="M 31 131 L 78 131 L 78 196 L 31 196 Z M 31 131 "/>
</clipPath>
<clipPath id="clip65">
  <path d="M 0.84375 53.804688 L 377.242188 -0.195312 L 478.960938 708.792969 L 102.5625 762.792969 Z M 0.84375 53.804688 "/>
</clipPath>
<clipPath id="clip66">
  <path d="M 0.84375 53.804688 L 377.242188 -0.195312 L 478.960938 708.792969 L 102.5625 762.792969 Z M 0.84375 53.804688 "/>
</clipPath>
<clipPath id="clip67">
  <path d="M 249 284 L 299 284 L 299 342 L 249 342 Z M 249 284 "/>
</clipPath>
<clipPath id="clip68">
  <path d="M 0.84375 53.804688 L 377.242188 -0.195312 L 478.960938 708.792969 L 102.5625 762.792969 Z M 0.84375 53.804688 "/>
</clipPath>
<clipPath id="clip69">
  <path d="M 0.84375 53.804688 L 377.242188 -0.195312 L 478.960938 708.792969 L 102.5625 762.792969 Z M 0.84375 53.804688 "/>
</clipPath>
<clipPath id="clip70">
  <path d="M 295 202 L 342 202 L 342 258 L 295 258 Z M 295 202 "/>
</clipPath>
<clipPath id="clip71">
  <path d="M 0.84375 53.804688 L 377.242188 -0.195312 L 478.960938 708.792969 L 102.5625 762.792969 Z M 0.84375 53.804688 "/>
</clipPath>
<clipPath id="clip72">
  <path d="M 0.84375 53.804688 L 377.242188 -0.195312 L 478.960938 708.792969 L 102.5625 762.792969 Z M 0.84375 53.804688 "/>
</clipPath>
<clipPath id="clip73">
  <path d="M 315 398 L 353 398 L 353 458 L 315 458 Z M 315 398 "/>
</clipPath>
<clipPath id="clip74">
  <path d="M 0.84375 53.804688 L 377.242188 -0.195312 L 478.960938 708.792969 L 102.5625 762.792969 Z M 0.84375 53.804688 "/>
</clipPath>
<clipPath id="clip75">
  <path d="M 0.84375 53.804688 L 377.242188 -0.195312 L 478.960938 708.792969 L 102.5625 762.792969 Z M 0.84375 53.804688 "/>
</clipPath>
<clipPath id="clip76">
  <path d="M 112 556 L 157 556 L 157 613 L 112 613 Z M 112 556 "/>
</clipPath>
<clipPath id="clip77">
  <path d="M 0.84375 53.804688 L 377.242188 -0.195312 L 478.960938 708.792969 L 102.5625 762.792969 Z M 0.84375 53.804688 "/>
</clipPath>
<clipPath id="clip78">
  <path d="M 0.84375 53.804688 L 377.242188 -0.195312 L 478.960938 708.792969 L 102.5625 762.792969 Z M 0.84375 53.804688 "/>
</clipPath>
<clipPath id="clip79">
  <path d="M 122 291 L 164 291 L 164 348 L 122 348 Z M 122 291 "/>
</clipPath>
<clipPath id="clip80">
  <path d="M 0.84375 53.804688 L 377.242188 -0.195312 L 478.960938 708.792969 L 102.5625 762.792969 Z M 0.84375 53.804688 "/>
</clipPath>
<clipPath id="clip81">
  <path d="M 0.84375 53.804688 L 377.242188 -0.195312 L 478.960938 708.792969 L 102.5625 762.792969 Z M 0.84375 53.804688 "/>
</clipPath>
<clipPath id="clip82">
  <path d="M 238 119 L 281 119 L 281 171 L 238 171 Z M 238 119 "/>
</clipPath>
<clipPath id="clip83">
  <path d="M 0.84375 53.804688 L 377.242188 -0.195312 L 478.960938 708.792969 L 102.5625 762.792969 Z M 0.84375 53.804688 "/>
</clipPath>
<clipPath id="clip84">
  <path d="M 0.84375 53.804688 L 377.242188 -0.195312 L 478.960938 708.792969 L 102.5625 762.792969 Z M 0.84375 53.804688 "/>
</clipPath>
<clipPath id="clip85">
  <path d="M 34 240 L 92 240 L 92 291 L 34 291 Z M 34 240 "/>
</clipPath>
<clipPath id="clip86">
  <path d="M 0.84375 53.804688 L 377.242188 -0.195312 L 478.960938 708.792969 L 102.5625 762.792969 Z M 0.84375 53.804688 "/>
</clipPath>
<clipPath id="clip87">
  <path d="M 0.84375 53.804688 L 377.242188 -0.195312 L 478.960938 708.792969 L 102.5625 762.792969 Z M 0.84375 53.804688 "/>
</clipPath>
<clipPath id="clip88">
  <path d="M 387 450 L 429 450 L 429 515 L 387 515 Z M 387 450 "/>
</clipPath>
<clipPath id="clip89">
  <path d="M 0.84375 53.804688 L 377.242188 -0.195312 L 478.960938 708.792969 L 102.5625 762.792969 Z M 0.84375 53.804688 "/>
</clipPath>
<clipPath id="clip90">
  <path d="M 0.84375 53.804688 L 377.242188 -0.195312 L 478.960938 708.792969 L 102.5625 762.792969 Z M 0.84375 53.804688 "/>
</clipPath>
<clipPath id="clip91">
  <path d="M 117 192 L 162 192 L 162 245 L 117 245 Z M 117 192 "/>
</clipPath>
<clipPath id="clip92">
  <path d="M 0.84375 53.804688 L 377.242188 -0.195312 L 478.960938 708.792969 L 102.5625 762.792969 Z M 0.84375 53.804688 "/>
</clipPath>
<clipPath id="clip93">
  <path d="M 0.84375 53.804688 L 377.242188 -0.195312 L 478.960938 708.792969 L 102.5625 762.792969 Z M 0.84375 53.804688 "/>
</clipPath>
<clipPath id="clip9">
  <rect x="0" y="0" width="481" height="721"/>
</clipPath>
<g id="surface11" clip-path="url(#clip9)">
<g clip-path="url(#clip10)" clip-rule="nonzero">
<g clip-path="url(#clip11)" clip-rule="nonzero">
<g clip-path="url(#clip12)" clip-rule="nonzero">
<path style=" stroke:none;fill-rule:nonzero;fill:rgb(100%,100%,100%);fill-opacity:1;" d="M 210.230469 717.082031 C 210.648438 719.976562 211.300781 724.53125 211.933594 728.941406 C 212.449219 732.53125 208.191406 735.25 204.09375 734.152344 C 203.363281 733.972656 202.320312 733.558594 202.101562 733.027344 C 199.632812 722.683594 197.164062 712.339844 194.832031 701.976562 C 192.738281 692.28125 190.386719 682.761719 186.792969 673.425781 C 184.582031 667.828125 183.296875 661.820312 181.207031 656.066406 C 180.496094 654.054688 178.703125 652.34375 177.203125 650.726562 C 175.824219 648.957031 174.738281 649.25 173.714844 650.945312 C 172.121094 653.570312 171.15625 656.664062 171.160156 659.621094 C 170.636719 675.601562 170.25 691.566406 170.144531 707.488281 C 170.144531 710.445312 171.132812 713.398438 171.566406 716.433594 C 172.28125 722.386719 174.667969 728.238281 173.863281 734.40625 C 173.785156 734.839844 172.996094 735.234375 172.582031 735.292969 C 171.894531 735.390625 170.929688 735.53125 170.316406 735.195312 C 169.707031 734.859375 169.195312 734.230469 168.820312 733.582031 C 165.34375 725.070312 163.210938 716.085938 162.910156 707.117188 C 162.390625 692.691406 159.917969 678.40625 160.085938 663.882812 C 160.066406 660.789062 159.90625 657.714844 160.476562 654.816406 C 161.042969 651.921875 162.027344 648.964844 163.167969 646.125 C 164.84375 642.085938 169.882812 638.96875 174.042969 639.496094 C 176.328125 639.730469 178.515625 640.261719 180.703125 640.792969 C 183.898438 641.460938 186.066406 643.824219 187.800781 646.109375 C 189.183594 647.882812 190.1875 649.992188 191.058594 652.117188 C 199.78125 672.6875 205.488281 693.828125 210.230469 717.082031 Z M 210.230469 717.082031 "/>
</g>
</g>
</g>
<g clip-path="url(#clip13)" clip-rule="nonzero">
<g clip-path="url(#clip14)" clip-rule="nonzero">
<g clip-path="url(#clip15)" clip-rule="nonzero">
<path style=" stroke:none;fill-rule:nonzero;fill:rgb(100%,100%,100%);fill-opacity:1;" d="M 399.660156 672.589844 C 400.054688 675.347656 401.003906 682.953125 401.933594 690.421875 C 402.113281 692.648438 401.445312 694.855469 399.710938 696.511719 C 398.332031 697.695312 397.113281 698.011719 395.59375 697.242188 C 394.984375 696.910156 393.839844 696.792969 393.644531 696.398438 C 392.773438 694.269531 391.90625 692.140625 391.589844 689.933594 C 389.964844 675.667969 387.238281 661.558594 384.351562 647.332031 C 382.039062 636.121094 378.25 625.402344 373.789062 614.921875 C 372.683594 612.125 370.769531 609.582031 368.128906 607.851562 C 366.886719 607.042969 365.351562 607.121094 364.265625 608.40625 C 362.96875 610.140625 361.707031 612.152344 361.019531 614.21875 C 357.65625 625.121094 356.183594 636.453125 355.699219 647.785156 C 355.445312 653.875 355.332031 659.941406 354.921875 665.914062 C 354.84375 667.332031 354.054688 668.714844 353.542969 670.054688 C 352.933594 671.691406 351.574219 672.027344 349.898438 672.125 C 348.34375 672.066406 347.023438 671.691406 346.488281 669.941406 C 345.757812 667.792969 345.027344 665.644531 344.710938 663.4375 C 342.972656 651.300781 345.191406 639.296875 346.699219 627.253906 C 347.738281 619.785156 349.351562 612.375 352.421875 605.316406 C 354.644531 600.210938 361.855469 596.503906 367.550781 597.9375 C 371.335938 598.804688 374.6875 600.574219 377.09375 603.609375 C 378.984375 606.011719 380.878906 608.414062 382.121094 611.191406 C 386.089844 620.195312 389.917969 629.21875 392.148438 638.894531 C 394.402344 648.707031 396.496094 658.402344 399.660156 672.589844 Z M 399.660156 672.589844 "/>
</g>
</g>
</g>
<g clip-path="url(#clip16)" clip-rule="nonzero">
<g clip-path="url(#clip17)" clip-rule="nonzero">
<g clip-path="url(#clip18)" clip-rule="nonzero">
<path style=" stroke:none;fill-rule:nonzero;fill:rgb(100%,100%,100%);fill-opacity:1;" d="M 272.832031 516.644531 C 273.628906 525.117188 274.96875 529.570312 273.652344 534.125 C 273.199219 535.878906 272.039062 536.609375 270.363281 536.707031 C 268.964844 536.769531 267.503906 536.414062 266.714844 534.839844 C 265.964844 533.539062 265.472656 532.058594 265.136719 530.699219 C 264.5625 527.6875 263.851562 524.691406 263.574219 521.773438 C 262.1875 508.175781 257.921875 495.132812 254.210938 482.011719 C 252.414062 475.371094 249.15625 469.363281 244.742188 464.085938 C 243.714844 462.824219 239.773438 462.824219 238.710938 464.246094 C 238.238281 464.875 237.589844 465.25 237.273438 466 C 234.359375 472.191406 232.335938 478.675781 231.628906 485.53125 C 230.238281 498.402344 229.675781 511.152344 229.839844 524.082031 C 229.917969 525.617188 229.703125 527.054688 229.785156 528.59375 C 229.804688 530.703125 228.03125 533.066406 226.160156 533.757812 C 223.617188 534.6875 220.167969 532.226562 219.574219 529.074219 C 219.476562 528.382812 219.082031 527.59375 218.84375 526.925781 C 218.746094 526.234375 218.628906 525.40625 218.527344 524.71875 C 217.257812 508.007812 218.390625 491.375 221.808594 474.976562 C 222.890625 469.753906 224.5625 464.726562 227.730469 460.332031 C 230.527344 456.269531 234.152344 454.058594 239.058594 453.917969 C 242.132812 453.757812 244.953125 454.761719 247.476562 456.652344 C 250.492188 459.035156 253.015625 461.910156 254.890625 465.160156 C 257.886719 470.363281 260.238281 475.9375 263 481.453125 C 266.277344 494.5 272.296875 507.007812 272.832031 516.644531 Z M 272.832031 516.644531 "/>
</g>
</g>
</g>
<g clip-path="url(#clip19)" clip-rule="nonzero">
<g clip-path="url(#clip20)" clip-rule="nonzero">
<g clip-path="url(#clip21)" clip-rule="nonzero">
<path style=" stroke:none;fill-rule:nonzero;fill:rgb(100%,100%,100%);fill-opacity:1;" d="M 329.710938 717.816406 C 329.789062 718.371094 329.910156 722.152344 329.871094 725.820312 C 329.851562 727.652344 328.691406 728.382812 327.214844 728.875 C 325.480469 729.546875 324.179688 729.308594 323.390625 727.734375 C 322.640625 726.433594 321.613281 725.171875 321.277344 723.8125 C 320.46875 720.128906 320.070312 716.386719 319.125 712.71875 C 315.25 696.523438 311.378906 680.328125 304.394531 665 C 303.78125 663.679688 303.03125 662.378906 302.265625 660.941406 C 301.496094 659.503906 300.132812 658.851562 298.675781 658.5 C 297.078125 658.164062 295.71875 658.5 294.8125 660.039062 C 293.691406 662.03125 292.253906 663.785156 291.585938 665.992188 C 287.417969 679.117188 285.984375 692.699219 286.960938 706.355469 C 287.398438 712.34375 288.269531 718.414062 288.84375 724.386719 C 288.921875 725.921875 288.707031 727.359375 288.648438 728.917969 C 288.589844 730.472656 286.207031 733.492188 284.730469 733.984375 C 283.507812 734.300781 279.902344 731.722656 279.40625 730.242188 C 279.171875 729.574219 278.777344 728.785156 278.675781 728.097656 C 275.632812 710.796875 274.972656 693.433594 278.546875 676.167969 C 279.804688 670.214844 281.515625 664.480469 284.25 659.019531 C 286.4375 654.625 289.707031 651.902344 294.257812 650.265625 C 298.117188 648.726562 304.128906 650.394531 306.792969 653.253906 C 312.117188 658.964844 314.5625 666.214844 318.195312 672.875 C 321.53125 685.347656 326.761719 697.265625 328.878906 710.054688 C 328.976562 711.730469 329.054688 713.265625 329.710938 717.816406 Z M 329.710938 717.816406 "/>
</g>
</g>
</g>
<g clip-path="url(#clip22)" clip-rule="nonzero">
<g clip-path="url(#clip23)" clip-rule="nonzero">
<g clip-path="url(#clip24)" clip-rule="nonzero">
<path style=" stroke:none;fill-rule:nonzero;fill:rgb(100%,100%,100%);fill-opacity:1;" d="M 183.320312 502.035156 C 183.417969 503.710938 183.324219 505.976562 183.5 508.203125 C 183.621094 510.019531 182.929688 511.101562 181.355469 511.890625 C 178.855469 513.09375 177.277344 512.898438 175.34375 511.203125 C 173.570312 509.628906 171.914062 507.894531 172.128906 505.472656 C 172.753906 496.089844 169.003906 487.621094 167.167969 478.734375 C 165.171875 469.726562 161.460938 461.53125 157.335938 453.394531 C 155.582031 449.988281 153.3125 446.933594 150.925781 444.039062 C 150.058594 442.898438 148.5625 442.265625 147.320312 441.460938 C 145.898438 440.394531 142.253906 440.496094 140.875 441.679688 C 139.125 443.199219 137.351562 444.578125 135.894531 446.195312 C 132.40625 450.355469 130.300781 455.304688 128.925781 460.429688 C 126.507812 470.066406 124.640625 479.625 125.515625 489.636719 C 125.773438 493.398438 125.480469 497.242188 123.726562 500.730469 C 123.175781 501.796875 121.441406 502.46875 120.125 503.078125 C 118.527344 503.730469 115.117188 501.546875 114.878906 499.890625 C 114.660156 498.371094 114.167969 496.894531 114.089844 495.359375 C 113.667969 481.621094 115.53125 468.121094 119.265625 454.917969 C 120.78125 449.773438 123.222656 445.199219 126.84375 441.019531 C 131.6875 435.535156 137.640625 432.851562 145.070312 433.617188 C 147.214844 433.871094 149.5625 434.519531 151.535156 435.503906 C 157.761719 438.695312 162.808594 443.460938 165.691406 449.804688 C 169.539062 457.980469 173.800781 466.097656 176.070312 475.0625 C 177.730469 481.722656 180.058594 488.144531 181.976562 494.628906 C 182.449219 496.953125 182.765625 499.160156 183.320312 502.035156 Z M 183.320312 502.035156 "/>
</g>
</g>
</g>
<g clip-path="url(#clip25)" clip-rule="nonzero">
<g clip-path="url(#clip26)" clip-rule="nonzero">
<g clip-path="url(#clip27)" clip-rule="nonzero">
<path style=" stroke:none;fill-rule:nonzero;fill:rgb(100%,100%,100%);fill-opacity:1;" d="M 317.476562 597.238281 C 317.816406 603.523438 318.332031 611.054688 318.59375 618.757812 C 318.652344 620.15625 318.203125 621.910156 317.53125 623.132812 C 316.84375 624.21875 315.40625 624.988281 314.105469 625.738281 C 312.667969 626.507812 309.097656 624.203125 308.605469 622.726562 C 307.617188 619.769531 307.339844 616.851562 307.320312 613.757812 C 307.589844 603.867188 306.894531 594.113281 305.351562 584.339844 C 304.023438 576.082031 301.203125 568.179688 297.453125 560.695312 C 296.25 558.191406 292.761719 556.441406 289.882812 556.996094 C 288.25 557.371094 286.929688 557.980469 286.121094 559.222656 C 285.316406 560.464844 284.371094 561.726562 283.859375 563.066406 C 279.136719 575.289062 277.449219 588.058594 277.476562 601.007812 C 277.558594 605.5 278.625 609.992188 279.277344 614.542969 C 279.496094 616.0625 279.003906 617.539062 277.585938 618.449219 C 275.910156 619.53125 272.71875 618.863281 271.652344 617.328125 C 270.765625 616.046875 269.761719 614.925781 269.285156 613.585938 C 267.332031 607.8125 266.324219 601.761719 266.851562 595.632812 C 267.75 584.242188 269.105469 573.066406 273.039062 562.226562 C 276.363281 553.023438 284.816406 548.148438 294.648438 549.976562 C 298.550781 550.683594 301.644531 552.632812 304.070312 555.804688 C 308.609375 561.910156 312.238281 568.570312 313.761719 576.234375 C 314.945312 582.539062 316.054688 589.277344 317.476562 597.238281 Z M 317.476562 597.238281 "/>
</g>
</g>
</g>
<g clip-path="url(#clip28)" clip-rule="nonzero">
<g clip-path="url(#clip29)" clip-rule="nonzero">
<g clip-path="url(#clip30)" clip-rule="nonzero">
<path style=" stroke:none;fill-rule:nonzero;fill:rgb(100%,100%,100%);fill-opacity:1;" d="M 280.59375 409.808594 C 282.394531 423.347656 284.195312 436.886719 281.640625 450.484375 C 281.308594 452.082031 279.851562 452.710938 278.351562 453.066406 C 276.71875 453.441406 275.238281 452.953125 274.449219 451.375 C 273.839844 450.054688 272.929688 448.636719 272.871094 447.238281 C 272.433594 441.246094 272.113281 435.097656 272.089844 429.046875 C 272.023438 416.8125 270.597656 404.910156 268.464844 392.96875 C 267.097656 385.421875 264.671875 378.308594 260.765625 371.6875 C 260.015625 370.390625 255.875 368.027344 255.105469 368.558594 C 253.964844 369.425781 252.863281 370.570312 251.898438 371.695312 C 251.40625 372.1875 250.953125 372.957031 250.773438 373.683594 C 248.316406 380.089844 246.429688 386.554688 246.589844 393.570312 C 246.671875 398.066406 246.910156 402.675781 246.855469 407.1875 C 246.777344 408.609375 246.441406 410.203125 245.636719 411.445312 C 244.945312 412.53125 243.726562 413.832031 242.503906 414.148438 C 241.027344 414.640625 239.488281 413.734375 238.601562 412.457031 C 237.734375 411.3125 236.6875 409.914062 236.488281 408.535156 C 235.617188 399.511719 236.144531 390.425781 237.949219 381.4375 C 238.699219 377.8125 239.859375 374.125 241.175781 370.558594 C 242.003906 368.46875 243.125 366.476562 244.542969 364.585938 C 248.796875 358.90625 257.050781 357.582031 262.75 361.972656 C 265.765625 364.355469 268.40625 367.074219 270.164062 370.480469 C 274.050781 377.949219 277.128906 385.671875 278.316406 393.949219 C 279.089844 399.328125 279.839844 404.566406 280.59375 409.808594 Z M 280.59375 409.808594 "/>
</g>
</g>
</g>
<g clip-path="url(#clip31)" clip-rule="nonzero">
<g clip-path="url(#clip32)" clip-rule="nonzero">
<g clip-path="url(#clip33)" clip-rule="nonzero">
<path style=" stroke:none;fill-rule:nonzero;fill:rgb(100%,100%,100%);fill-opacity:1;" d="M 461.117188 695.726562 C 462.183594 701.203125 463.9375 704.613281 462.957031 708.554688 C 462.503906 710.308594 461.65625 711.273438 459.804688 711.117188 C 456.808594 710.84375 455.113281 709.820312 454.542969 707.792969 C 454.304688 707.121094 453.792969 706.492188 453.671875 705.664062 C 450.546875 687.8125 443.878906 670.75 439.136719 653.410156 C 438.546875 651.242188 437.144531 649.332031 435.902344 647.539062 C 435.546875 647.027344 434.777344 646.574219 434.03125 646.257812 C 432.828125 645.726562 431.367188 646.359375 430.777344 648.132812 C 429.777344 650.953125 428.652344 653.929688 428.359375 656.785156 C 427.480469 667.328125 426.167969 677.792969 427.277344 688.476562 C 427.554688 691.390625 427.4375 694.503906 427.164062 697.5 C 427.066406 698.78125 425.863281 700.222656 424.859375 701.070312 C 423.460938 702.113281 421.746094 701.9375 421.035156 700.914062 C 420.167969 699.769531 419.261719 698.351562 418.925781 696.992188 C 415.089844 678.117188 416.5 659.472656 421.886719 641.101562 C 422.554688 638.894531 423.539062 636.925781 424.660156 634.933594 C 427.949219 629.394531 434.945312 628.109375 439.835938 633.742188 C 440.839844 634.863281 441.726562 636.144531 442.339844 637.464844 C 445.675781 645.011719 448.890625 652.714844 451.023438 660.714844 C 454.183594 672.929688 458.054688 685.1875 461.117188 695.726562 Z M 461.117188 695.726562 "/>
</g>
</g>
</g>
<g clip-path="url(#clip34)" clip-rule="nonzero">
<g clip-path="url(#clip35)" clip-rule="nonzero">
<g clip-path="url(#clip36)" clip-rule="nonzero">
<path style=" stroke:none;fill-rule:nonzero;fill:rgb(100%,100%,100%);fill-opacity:1;" d="M 349.796875 532.070312 C 348.863281 522.628906 347.714844 513.644531 345.1875 504.855469 C 343.84375 500.402344 341.617188 496.640625 338.066406 493.488281 C 334.695312 490.59375 328.585938 491.191406 326.046875 495.074219 C 322.226562 500.832031 319.453125 507 318.765625 513.996094 C 318.023438 521.566406 317.417969 529.113281 318.367188 536.71875 C 318.980469 541.980469 319.179688 547.300781 319.382812 552.621094 C 319.5 554.433594 318.359375 555.300781 317 555.636719 C 315.226562 556.035156 313.90625 555.660156 313.136719 554.222656 C 312.761719 553.570312 312.128906 553.097656 311.875 552.292969 C 309.089844 542.695312 307.820312 532.882812 307.679688 523.046875 C 307.414062 512.386719 309.714844 501.921875 315.699219 492.617188 C 317.886719 489.207031 320.9375 486.9375 324.800781 486.382812 C 328.503906 485.710938 332.308594 485.730469 336.089844 485.609375 C 340.03125 485.605469 343.382812 487.378906 346.300781 490.054688 C 350.226562 493.859375 353.242188 498.210938 354.683594 503.351562 C 356.125 508.496094 357.707031 513.617188 358.457031 518.859375 C 360.179688 530.859375 361.761719 542.882812 361.554688 555.160156 C 361.574219 556.28125 360.375 557.722656 359.230469 558.589844 C 357.851562 559.773438 354.265625 558.316406 353.574219 556.445312 C 352.941406 554.984375 352.191406 553.6875 351.976562 552.167969 C 351.519531 549.980469 351.324219 547.617188 351.144531 545.390625 C 350.351562 540.859375 350.132812 536.382812 349.796875 532.070312 Z M 349.796875 532.070312 "/>
</g>
</g>
</g>
<g clip-path="url(#clip37)" clip-rule="nonzero">
<g clip-path="url(#clip38)" clip-rule="nonzero">
<g clip-path="url(#clip39)" clip-rule="nonzero">
<path style=" stroke:none;fill-rule:nonzero;fill:rgb(100%,100%,100%);fill-opacity:1;" d="M 210.871094 404.609375 C 211.027344 407.683594 211.304688 410.601562 211.464844 413.675781 C 211.425781 414.382812 211.269531 415.25 210.933594 415.863281 C 210.109375 416.964844 209.203125 418.503906 208 418.957031 C 206.542969 419.589844 205.003906 418.683594 204.019531 417.699219 C 202.246094 416.125 201.101562 414.035156 200.921875 411.808594 C 200.285156 399.511719 198.03125 387.726562 193.433594 376.28125 C 192.820312 374.960938 191.933594 373.679688 191.183594 372.378906 C 190.078125 370.570312 186.667969 370.355469 185.328125 371.8125 C 183.28125 374.21875 182.121094 376.917969 181.414062 379.835938 C 178.820312 390.203125 177.800781 400.765625 177.925781 411.449219 C 177.988281 416.789062 178.1875 422.109375 177.816406 427.371094 C 177.71875 428.652344 176.359375 429.972656 175.375 430.957031 C 174.253906 431.964844 169.9375 430.332031 169.304688 428.875 C 168.808594 427.394531 167.921875 426.117188 167.84375 424.578125 C 167.40625 418.585938 166.515625 412.378906 166.925781 406.410156 C 167.589844 397.304688 168.117188 388.21875 170.652344 379.410156 C 171.675781 375.742188 173.152344 372.292969 174.765625 368.824219 C 178.664062 360.664062 188.949219 358.765625 195.988281 364.652344 C 198.371094 366.5625 200.382812 368.808594 201.648438 371.722656 C 205.851562 382.382812 209.917969 393.0625 210.871094 404.609375 Z M 210.871094 404.609375 "/>
</g>
</g>
</g>
<g clip-path="url(#clip40)" clip-rule="nonzero">
<g clip-path="url(#clip41)" clip-rule="nonzero">
<g clip-path="url(#clip42)" clip-rule="nonzero">
<path style=" stroke:none;fill-rule:nonzero;fill:rgb(100%,100%,100%);fill-opacity:1;" d="M 461.601562 588.246094 C 461.644531 589.507812 461.722656 591.042969 461.941406 592.5625 C 462.019531 594.097656 459.363281 597.15625 457.6875 597.253906 C 455.714844 597.253906 453.054688 595.382812 452.660156 593.613281 C 451.988281 589.90625 451.316406 586.203125 450.503906 582.519531 C 448.351562 571.425781 445.230469 560.46875 439.84375 550.402344 C 436.964844 545.042969 433.058594 540.394531 428.167969 536.730469 C 427.539062 536.261719 426.789062 535.945312 426.179688 535.609375 C 422.90625 533.40625 418.53125 534.3125 416.148438 537.332031 C 411.128906 543.542969 409.496094 550.8125 409.027344 558.34375 C 408.617188 564.3125 409.054688 570.304688 408.941406 576.375 C 408.902344 578.070312 407.464844 578.839844 406.125 579.3125 C 404.234375 579.863281 403.207031 579.589844 402.515625 577.71875 C 402.28125 577.046875 401.628906 576.4375 401.394531 575.769531 C 398.058594 566.25 398.070312 556.535156 400.035156 546.679688 C 400.390625 545.222656 400.878906 543.746094 401.53125 542.382812 C 405.820312 532.054688 412.300781 526.199219 426.546875 528.378906 C 428.714844 528.769531 430.824219 529.734375 432.679688 530.875 C 439.816406 535.484375 445.082031 541.765625 448.988281 549.371094 C 451.730469 554.75 454.332031 560.148438 456.03125 566.097656 C 457.769531 573.308594 460.472656 580.382812 461.601562 588.246094 Z M 461.601562 588.246094 "/>
</g>
</g>
</g>
<g clip-path="url(#clip43)" clip-rule="nonzero">
<g clip-path="url(#clip44)" clip-rule="nonzero">
<g clip-path="url(#clip45)" clip-rule="nonzero">
<path style=" stroke:none;fill-rule:nonzero;fill:rgb(100%,100%,100%);fill-opacity:1;" d="M 345.011719 380.015625 C 343.054688 364.386719 343.363281 353.785156 345.9375 343.28125 C 346.289062 341.820312 346.78125 340.34375 347.292969 339.003906 C 350.285156 331.394531 355.367188 326.582031 363.9375 325.492188 C 371.40625 324.5625 377.378906 326.945312 382.367188 332.28125 C 382.859375 332.773438 383.371094 333.40625 383.886719 334.035156 C 387.671875 338.839844 391.0625 343.84375 393.019531 349.617188 C 393.511719 351.09375 394.003906 352.574219 394.480469 353.914062 C 399.355469 366.304688 400.464844 378.957031 397.972656 391.984375 C 397.597656 394.289062 396.160156 396.042969 393.71875 396.675781 C 392.21875 397.03125 390.878906 396.519531 390.226562 394.925781 C 389.617188 393.605469 389.242188 391.96875 389.320312 390.550781 C 389.335938 386.746094 389.492188 382.925781 389.667969 379.238281 C 389.878906 373.859375 389.402344 368.578125 387.824219 363.453125 C 386.382812 358.3125 384.824219 353.328125 383.105469 348.222656 C 381.507812 342.964844 378.09375 338.808594 374.585938 334.945312 C 373.578125 333.824219 371.984375 333.488281 370.71875 332.546875 C 368.652344 330.871094 364.136719 331.800781 362.265625 333.476562 C 358.78125 336.652344 356.832031 340.730469 355.792969 345.246094 C 353.511719 354.863281 352.667969 364.699219 353.820312 374.667969 C 354.253906 377.703125 354.53125 380.621094 353.273438 383.617188 C 352.664062 385.25 351.636719 385.960938 349.824219 386.082031 C 348.425781 386.140625 347.222656 385.609375 346.414062 383.894531 C 345.804688 382.574219 345.171875 381.117188 344.816406 379.621094 C 344.597656 378.101562 344.519531 376.566406 345.011719 380.015625 Z M 345.011719 380.015625 "/>
</g>
</g>
</g>
<g clip-path="url(#clip46)" clip-rule="nonzero">
<g clip-path="url(#clip47)" clip-rule="nonzero">
<g clip-path="url(#clip48)" clip-rule="nonzero">
<path style=" stroke:none;fill-rule:nonzero;fill:rgb(100%,100%,100%);fill-opacity:1;" d="M 219.308594 674.390625 C 219.382812 667.058594 219.28125 659.472656 219.609375 651.964844 C 219.902344 645.164062 221.476562 638.464844 224.070312 632.039062 C 224.898438 629.949219 226.179688 628.074219 227.597656 626.183594 C 230.863281 621.492188 238.371094 621.820312 241.035156 626.648438 C 244.804688 633.285156 247.785156 640.320312 249.679688 647.648438 C 253.019531 660.121094 256.355469 672.59375 259.832031 685.046875 C 260.660156 687.886719 260.957031 690.9375 259.996094 694.035156 C 259.523438 695.648438 258.378906 696.519531 256.746094 696.894531 C 255.128906 697.40625 253.945312 697.011719 253 695.320312 C 252.25 694.019531 251.5 692.71875 251.144531 691.222656 C 247.945312 678.730469 244.746094 666.238281 241.683594 653.722656 C 240.617188 649.230469 239.292969 644.917969 236.628906 641.074219 C 235.585938 639.675781 234.226562 639.027344 233.160156 639.460938 C 232.492188 639.699219 231.902344 640.488281 231.703125 641.078125 C 230.207031 645.375 229.007812 649.769531 229.109375 654.402344 C 229.292969 663.527344 229.753906 672.609375 228.222656 681.558594 C 228.042969 682.289062 227.589844 683.054688 226.941406 683.429688 C 225.757812 684.023438 224.183594 683.828125 223.039062 682.722656 C 221.914062 681.757812 221.027344 680.480469 220.535156 679 C 219.804688 677.839844 219.703125 676.164062 219.308594 674.390625 Z M 219.308594 674.390625 "/>
</g>
</g>
</g>
<g clip-path="url(#clip49)" clip-rule="nonzero">
<g clip-path="url(#clip50)" clip-rule="nonzero">
<g clip-path="url(#clip51)" clip-rule="nonzero">
<path style=" stroke:none;fill-rule:nonzero;fill:rgb(100%,100%,100%);fill-opacity:1;" d="M 247.957031 79.308594 C 248.117188 82.382812 248.589844 87.660156 248.773438 92.84375 C 248.851562 95.367188 247.535156 96.964844 245.445312 98.109375 C 244.796875 98.484375 243.730469 98.917969 243.277344 98.699219 C 242.035156 97.894531 240.339844 96.871094 240.320312 95.746094 C 238.953125 85.242188 238.277344 74.640625 235.808594 64.296875 C 233.675781 55.3125 229.847656 47.273438 224.933594 39.53125 C 224.046875 38.253906 223.179688 37.109375 222.175781 35.988281 C 217.71875 30.433594 210.878906 31.835938 207.929688 38.734375 C 205.171875 45.042969 203.582031 51.605469 203.308594 58.542969 C 203.210938 60.808594 202.820312 62.976562 202.585938 65.261719 C 202.308594 67.273438 197.148438 69.5625 195.058594 68.734375 C 192.832031 67.929688 191.214844 66.472656 190.601562 64.167969 C 190.246094 62.667969 190.027344 61.152344 190.105469 59.734375 C 190.535156 52.914062 191.972656 46.234375 194.585938 39.945312 C 196.042969 36.355469 197.992188 33.261719 200.691406 30.480469 C 206.835938 24.25 215.800781 23.949219 221.578125 26.921875 C 225.675781 29.007812 229.285156 31.589844 232.085938 35.410156 C 238.773438 44.726562 243.742188 54.851562 245.523438 66.28125 C 246 69.59375 246.808594 73.277344 247.957031 79.308594 Z M 247.957031 79.308594 "/>
</g>
</g>
</g>
<g clip-path="url(#clip52)" clip-rule="nonzero">
<g clip-path="url(#clip53)" clip-rule="nonzero">
<g clip-path="url(#clip54)" clip-rule="nonzero">
<path style=" stroke:none;fill-rule:nonzero;fill:rgb(100%,100%,100%);fill-opacity:1;" d="M 107.222656 382.738281 C 106.195312 377.535156 105.304688 372.3125 104.277344 367.113281 C 102.773438 359.585938 98.886719 353.101562 94.488281 346.976562 C 93.621094 345.835938 92.242188 345.046875 91.117188 344.082031 C 89.660156 342.742188 86.425781 342.785156 84.890625 343.847656 C 81.050781 346.511719 78.332031 350.140625 76.542969 354.339844 C 75.066406 357.789062 73.746094 361.355469 73.160156 365.101562 C 71.488281 374.066406 71.238281 383.113281 71.972656 392.160156 C 72.566406 398.265625 74.917969 403.84375 76.851562 409.476562 C 77.066406 410.011719 76.339844 410.816406 75.984375 411.292969 C 75.019531 412.414062 73.660156 412.75 72.042969 412.277344 C 71.316406 412.101562 70.664062 411.492188 70.289062 410.839844 C 65.851562 404.441406 63.699219 397.289062 63.4375 389.582031 C 63.199219 382.015625 63.234375 374.40625 64.132812 366.957031 C 65.074219 357.8125 68.675781 349.554688 74.683594 342.359375 C 78.542969 337.863281 85.140625 335.789062 91.171875 337.597656 C 95.589844 338.9375 99.3125 341.359375 102.46875 344.707031 C 107.144531 349.808594 110.515625 355.660156 112.589844 362.257812 C 116.457031 374.515625 118.417969 387.183594 118.308594 400.152344 C 118.269531 400.859375 117.796875 401.492188 117.617188 402.222656 C 117.304688 403.957031 116.261719 404.527344 114.289062 404.527344 C 112.734375 404.472656 111.550781 404.078125 110.761719 402.5 C 110.148438 401.179688 109.378906 399.742188 109.183594 398.363281 C 108.292969 393.140625 107.679688 387.878906 106.925781 382.640625 C 106.808594 382.796875 106.945312 382.777344 107.222656 382.738281 Z M 107.222656 382.738281 "/>
</g>
</g>
</g>
<g clip-path="url(#clip55)" clip-rule="nonzero">
<g clip-path="url(#clip56)" clip-rule="nonzero">
<g clip-path="url(#clip57)" clip-rule="nonzero">
<path style=" stroke:none;fill-rule:nonzero;fill:rgb(100%,100%,100%);fill-opacity:1;" d="M 181.503906 138.113281 C 181.839844 141.441406 182.375 145.167969 180.9375 148.890625 C 180.308594 150.390625 179.640625 151.613281 178.023438 152.125 C 176.152344 152.816406 173.414062 151.378906 172.464844 149.683594 C 171.320312 147.597656 170.730469 145.429688 170.550781 143.203125 C 170.132812 136.363281 168.492188 129.84375 166.832031 123.183594 C 164.917969 115.714844 161.308594 109.195312 156.632812 103.109375 C 155.765625 101.964844 154.246094 101.199219 153.125 100.234375 C 151.527344 98.914062 148.667969 99.605469 147.191406 101.082031 C 145.597656 102.71875 144.632812 104.828125 143.804688 106.917969 C 140.382812 115.433594 139.125 124.34375 138.601562 133.425781 C 138.464844 136.402344 137.460938 139.222656 135.726562 141.863281 C 134.566406 143.578125 131.925781 143.816406 129.992188 142.125 C 128.871094 141.160156 127.84375 139.898438 127.902344 138.339844 C 128.351562 127.71875 129.960938 117.351562 133.007812 107.203125 C 133.5 105.722656 134.148438 104.363281 134.796875 103.003906 C 137.730469 95.964844 143.007812 92.535156 150.578125 92.292969 C 156.3125 92.03125 160.765625 94.632812 164.570312 98.589844 C 166.582031 100.835938 168.21875 103.417969 169.71875 106.015625 C 175.816406 116.121094 179.941406 127.214844 181.503906 138.113281 Z M 181.503906 138.113281 "/>
</g>
</g>
</g>
<g clip-path="url(#clip58)" clip-rule="nonzero">
<g clip-path="url(#clip59)" clip-rule="nonzero">
<g clip-path="url(#clip60)" clip-rule="nonzero">
<path style=" stroke:none;fill-rule:nonzero;fill:rgb(100%,100%,100%);fill-opacity:1;" d="M 222.878906 581.53125 C 223.175781 584.585938 223.59375 587.480469 223.75 590.554688 C 223.8125 591.953125 223.320312 593.433594 223.125 595.007812 C 222.808594 596.742188 221.628906 597.335938 220.011719 597.847656 C 218.257812 598.382812 217.371094 598.085938 216.167969 596.570312 C 214.253906 594.027344 213.425781 591.191406 213.402344 588.097656 C 213.199219 574.894531 208.796875 562.855469 203.589844 551.074219 C 202.363281 548.433594 200.078125 546.230469 198.183594 543.824219 C 197.140625 542.425781 193.394531 542.824219 192.234375 544.539062 C 191.425781 545.78125 190.460938 546.90625 189.832031 548.402344 C 186.230469 557.648438 184.363281 567.207031 184.253906 577.21875 C 184.195312 581.730469 184.574219 586.320312 182.507812 590.558594 C 181.738281 592.078125 180.417969 592.691406 178.742188 591.804688 C 176.632812 590.839844 175.214844 588.789062 175.035156 586.5625 C 173.984375 574.328125 175.511719 562.421875 178.757812 550.695312 C 179.605469 547.757812 180.765625 545.058594 182.042969 542.199219 C 186.136719 532.460938 198.589844 531.941406 204.859375 538.363281 C 207.503906 541.082031 210.046875 544.09375 211.507812 547.40625 C 216.558594 558.082031 221.808594 569.15625 222.878906 581.53125 Z M 222.878906 581.53125 "/>
</g>
</g>
</g>
<g clip-path="url(#clip61)" clip-rule="nonzero">
<g clip-path="url(#clip62)" clip-rule="nonzero">
<g clip-path="url(#clip63)" clip-rule="nonzero">
<path style=" stroke:none;fill-rule:nonzero;fill:rgb(100%,100%,100%);fill-opacity:1;" d="M 221.5 254.988281 C 220.941406 244.230469 217.386719 234.179688 211.980469 224.960938 C 210.878906 223.148438 208.847656 221.75 207.09375 220.3125 C 205.96875 219.347656 204.273438 219.308594 202.855469 220.21875 C 201.0625 221.460938 199.152344 222.859375 197.714844 224.617188 C 194.859375 228.261719 193.070312 232.460938 192.164062 236.953125 C 190.574219 244.503906 190.085938 251.894531 190.78125 259.679688 C 191.335938 266.496094 193.269531 273.117188 192.425781 279.996094 C 192.347656 280.429688 191.582031 280.960938 191.027344 281.039062 C 190.339844 281.140625 189.097656 281.316406 188.902344 280.921875 C 187.519531 279.148438 185.726562 277.4375 185.152344 275.40625 C 182.152344 264.292969 180.960938 253.0625 182.550781 241.570312 C 183.335938 236.25 184.871094 231.246094 186.976562 226.296875 C 188.589844 222.828125 190.972656 219.8125 193.847656 217.285156 C 196.09375 215.273438 198.890625 214.171875 202.101562 213.992188 C 207.816406 213.59375 212.449219 215.460938 216.550781 219.519531 C 219.191406 222.238281 221.71875 225.113281 223.21875 228.699219 C 225.328125 233.605469 227.558594 238.351562 228.605469 243.691406 C 229.851562 250.410156 231.371094 257.089844 231.515625 263.96875 C 231.574219 266.355469 230.75 268.441406 229.152344 270.078125 C 228.660156 270.574219 227.695312 270.710938 227.007812 270.808594 C 225.605469 270.871094 223.832031 270.28125 223.476562 268.78125 C 222.527344 264.132812 222.152344 259.539062 221.5 254.988281 Z M 221.5 254.988281 "/>
</g>
</g>
</g>
<g clip-path="url(#clip64)" clip-rule="nonzero">
<g clip-path="url(#clip65)" clip-rule="nonzero">
<g clip-path="url(#clip66)" clip-rule="nonzero">
<path style=" stroke:none;fill-rule:nonzero;fill:rgb(100%,100%,100%);fill-opacity:1;" d="M 31.308594 180.355469 C 31.269531 178.109375 30.832031 175.074219 31.109375 172.078125 C 31.96875 161.394531 34.011719 151.109375 37.492188 141.035156 C 38.179688 138.964844 39.578125 136.933594 40.878906 135.199219 C 42.769531 132.675781 45.546875 131.433594 48.820312 131.667969 C 54.632812 131.960938 58.851562 134.875 61.652344 139.679688 C 65.023438 145.53125 67.769531 151.894531 69.425781 158.554688 C 72.035156 168.878906 74.484375 179.085938 76.953125 189.433594 C 77.054688 190.121094 77.035156 190.96875 76.855469 191.699219 C 76.542969 193.433594 75.519531 194.140625 74.0625 194.773438 C 72.328125 195.445312 71.28125 195.03125 70.21875 193.496094 C 67.929688 190.304688 66.980469 186.640625 66.171875 182.953125 C 64.058594 174.109375 62.496094 165.179688 59.554688 156.453125 C 57.835938 151.351562 55.882812 146.5625 52.726562 142.230469 C 51.679688 140.828125 48.035156 140.929688 47.011719 142.625 C 46.675781 143.238281 45.910156 143.769531 45.574219 144.382812 C 44.078125 148.679688 42.585938 152.976562 41.226562 157.253906 C 39.535156 163.125 38.851562 169.136719 39.582031 175.226562 C 39.980469 178.96875 40.652344 182.675781 39.648438 186.476562 C 39.175781 188.09375 38.035156 188.960938 36.558594 189.457031 C 34.941406 189.96875 33.898438 189.554688 33.066406 187.703125 C 32.832031 187.035156 32.316406 186.402344 32.199219 185.574219 C 32.121094 184.039062 31.902344 182.523438 31.308594 180.355469 Z M 31.308594 180.355469 "/>
</g>
</g>
</g>
<g clip-path="url(#clip67)" clip-rule="nonzero">
<g clip-path="url(#clip68)" clip-rule="nonzero">
<g clip-path="url(#clip69)" clip-rule="nonzero">
<path style=" stroke:none;fill-rule:nonzero;fill:rgb(100%,100%,100%);fill-opacity:1;" d="M 298.457031 330.242188 C 298.320312 332.234375 298.34375 335.328125 297.910156 338.203125 C 297.753906 340.058594 296.589844 340.789062 294.9375 341.023438 C 293.28125 341.261719 291.980469 341.027344 290.933594 339.628906 C 290.183594 338.328125 289.296875 337.046875 289.101562 335.667969 C 288.171875 331.15625 287.953125 326.683594 286.882812 322.191406 C 284.515625 312.535156 280.152344 303.726562 273.585938 296.222656 C 272.582031 295.101562 271.222656 294.453125 269.859375 293.800781 C 268.207031 293.054688 266.6875 293.273438 265.902344 294.652344 C 264.757812 296.503906 263.222656 298.554688 262.8125 300.585938 C 260.984375 309.433594 258.445312 318.246094 258.628906 327.371094 C 258.710938 328.90625 258.21875 330.386719 258 331.824219 C 257.726562 333.835938 254.671875 336.101562 253 335.214844 C 251.636719 334.566406 250.652344 333.582031 250.277344 331.945312 C 248.359375 320.539062 250.972656 309.324219 253.191406 298.304688 C 253.585938 296.136719 254.6875 294.007812 255.652344 291.898438 C 258.464844 285.019531 269.144531 281.9375 274.980469 286.3125 C 276.242188 287.257812 277.484375 288.0625 278.488281 289.1875 C 287.972656 298.382812 294.207031 309.453125 296.777344 322.460938 C 297.273438 324.921875 297.726562 327.109375 298.457031 330.242188 Z M 298.457031 330.242188 "/>
</g>
</g>
</g>
<g clip-path="url(#clip70)" clip-rule="nonzero">
<g clip-path="url(#clip71)" clip-rule="nonzero">
<g clip-path="url(#clip72)" clip-rule="nonzero">
<path style=" stroke:none;fill-rule:nonzero;fill:rgb(100%,100%,100%);fill-opacity:1;" d="M 296.90625 244.875 C 295.699219 237.445312 295.675781 228.4375 296.066406 219.375 C 296.316406 212.300781 302.734375 205.042969 310.125 203.5625 C 313.808594 202.75 317.691406 202.335938 321.160156 203.949219 C 328.257812 207.292969 333.421875 212.886719 336.285156 220.078125 C 339.621094 228.609375 341.714844 237.320312 341.621094 246.484375 C 341.523438 248.75 341.566406 250.996094 341.605469 253.242188 C 341.605469 255.214844 340.878906 256.023438 339.519531 256.355469 C 337.746094 256.753906 336.679688 256.203125 335.636719 254.804688 C 334.375 252.871094 333.644531 250.726562 333.464844 248.496094 C 332.453125 239.492188 331.03125 230.546875 327.695312 222.015625 C 326.332031 218.410156 324.203125 215.335938 321.558594 212.617188 C 320.554688 211.496094 319.195312 210.847656 317.816406 210.058594 C 315.351562 208.582031 311.726562 209.808594 309.972656 212.308594 C 306.960938 216.824219 305.585938 221.949219 305.941406 227.386719 C 306.359375 234.226562 307.308594 240.847656 307.867188 247.664062 C 308.042969 249.890625 307.949219 252.160156 307.554688 254.328125 C 307.359375 255.902344 306.097656 256.929688 304.777344 257.539062 C 303.0625 258.351562 300.207031 257.070312 299.496094 255.0625 C 299.257812 254.390625 299 253.582031 298.765625 252.914062 C 298.527344 252.242188 298.269531 251.433594 298.035156 250.765625 C 297.835938 249.386719 297.480469 247.890625 296.90625 244.875 Z M 296.90625 244.875 "/>
</g>
</g>
</g>
<g clip-path="url(#clip73)" clip-rule="nonzero">
<g clip-path="url(#clip74)" clip-rule="nonzero">
<g clip-path="url(#clip75)" clip-rule="nonzero">
<path style=" stroke:none;fill-rule:nonzero;fill:rgb(100%,100%,100%);fill-opacity:1;" d="M 351.910156 446.738281 C 351.953125 448 352.109375 451.074219 351.976562 454.046875 C 351.9375 455.742188 350.832031 456.886719 349.472656 457.222656 C 347.859375 457.734375 346.539062 457.363281 345.375 456.121094 C 344.882812 455.628906 344.09375 455.039062 344.015625 454.488281 C 343.242188 450.09375 342.453125 445.5625 341.679688 441.167969 C 340.019531 430.566406 336.625 420.636719 331.21875 411.414062 C 330.273438 409.722656 329.246094 409.445312 327.632812 409.960938 C 326.152344 410.453125 324.992188 411.183594 324.382812 412.820312 C 323.890625 414.296875 323.378906 415.636719 323.160156 417.074219 C 321.554688 428.429688 322.464844 439.699219 323.242188 450.992188 C 323.359375 452.804688 322.375 453.789062 321.015625 454.125 C 319.261719 454.660156 318.082031 454.265625 317.273438 452.550781 C 317.035156 451.882812 316.382812 451.269531 316.148438 450.601562 C 315.691406 448.414062 315.082031 446.109375 315.039062 443.863281 C 315.015625 434.855469 314.96875 425.710938 315.21875 416.667969 C 315.414062 412.132812 316.59375 407.601562 318.839844 403.617188 C 321.871094 398.257812 329.199219 396.359375 334.363281 400.96875 C 335.980469 402.425781 337.519531 404.316406 338.644531 406.269531 C 345.214844 418.699219 349.851562 431.40625 351.910156 446.738281 Z M 351.910156 446.738281 "/>
</g>
</g>
</g>
<g clip-path="url(#clip76)" clip-rule="nonzero">
<g clip-path="url(#clip77)" clip-rule="nonzero">
<g clip-path="url(#clip78)" clip-rule="nonzero">
<path style=" stroke:none;fill-rule:nonzero;fill:rgb(100%,100%,100%);fill-opacity:1;" d="M 156.34375 600.507812 C 156.34375 601.492188 156.601562 605.257812 156.585938 609.058594 C 156.507812 610.480469 155.5625 611.742188 153.964844 612.390625 C 151.859375 613.398438 149.058594 612.535156 148.09375 610.699219 C 147.480469 609.382812 146.457031 608.121094 146.238281 606.601562 C 145.703125 602.878906 145.582031 599.09375 145.046875 595.371094 C 143.878906 586.246094 140.957031 577.65625 136.71875 569.679688 C 135.730469 567.707031 133.835938 566.289062 132.339844 564.675781 C 131 563.179688 127.984375 563.75 126.703125 565.625 C 125.894531 566.867188 124.953125 568.128906 124.441406 569.46875 C 122.316406 575.265625 121.472656 581.15625 121.496094 587.207031 C 121.59375 590.851562 122.148438 594.714844 120.695312 598.300781 C 119.945312 599.957031 118.941406 600.804688 117.226562 600.628906 C 115.808594 600.550781 114.703125 599.722656 113.796875 598.304688 C 113.421875 597.65625 113.164062 596.847656 113.066406 596.160156 C 111.246094 585.4375 112.582031 575.113281 116.335938 565 C 119.859375 555.203125 132.746094 553.777344 138.996094 559.074219 C 141.894531 561.613281 144.28125 564.511719 146.15625 567.761719 C 151.304688 577.15625 154.71875 587.226562 156.34375 600.507812 Z M 156.34375 600.507812 "/>
</g>
</g>
</g>
<g clip-path="url(#clip79)" clip-rule="nonzero">
<g clip-path="url(#clip80)" clip-rule="nonzero">
<g clip-path="url(#clip81)" clip-rule="nonzero">
<path style=" stroke:none;fill-rule:nonzero;fill:rgb(100%,100%,100%);fill-opacity:1;" d="M 162.882812 337.023438 C 163.003906 338.835938 163.714844 341.832031 162.316406 344.847656 C 161.667969 346.207031 160.542969 347.214844 158.851562 347.175781 C 158.277344 347.117188 157.507812 346.664062 157.15625 346.152344 C 156.285156 345.007812 155.261719 343.75 154.90625 342.25 C 152.96875 332.675781 150.617188 323.15625 147.320312 313.917969 C 145.722656 309.640625 143.472656 305.742188 139.804688 302.746094 C 138.839844 301.902344 136.910156 302.179688 135.964844 303.441406 C 134.664062 305.175781 133.425781 307.324219 133.167969 309.472656 C 132.503906 314.636719 132.425781 319.996094 132.195312 325.238281 C 132 329.769531 134.5625 333.90625 133.542969 338.558594 C 133.207031 340.15625 131.789062 341.0625 130.054688 340.75 C 129.347656 340.710938 128.714844 340.238281 128.222656 339.746094 C 126.46875 338.308594 125.203125 336.375 124.59375 334.070312 C 121.847656 322.78125 122.785156 311.664062 125.125 300.492188 C 126.460938 294.105469 132.449219 290.710938 139.011719 292.304688 C 141.199219 292.835938 143.289062 293.660156 145.0625 295.238281 C 146.207031 296.339844 147.332031 297.304688 148.335938 298.425781 C 151.75 302.582031 154.488281 306.976562 156.464844 311.902344 C 159.40625 319.644531 161.953125 327.585938 162.882812 337.023438 Z M 162.882812 337.023438 "/>
</g>
</g>
</g>
<g clip-path="url(#clip82)" clip-rule="nonzero">
<g clip-path="url(#clip83)" clip-rule="nonzero">
<g clip-path="url(#clip84)" clip-rule="nonzero">
<path style=" stroke:none;fill-rule:nonzero;fill:rgb(100%,100%,100%);fill-opacity:1;" d="M 238.726562 162.140625 C 238.660156 154.828125 238.421875 147.261719 238.75 139.753906 C 238.945312 135.21875 240.28125 130.804688 242.074219 126.605469 C 244.453125 120.632812 254.027344 117.710938 259.507812 121.570312 C 262.011719 123.324219 264.535156 125.214844 266.132812 127.519531 C 269.152344 131.871094 271.914062 136.402344 274.144531 141.152344 C 276.628906 146.707031 278.445312 152.5 280.242188 158.152344 C 280.972656 160.300781 280.34375 162.785156 278.75 164.421875 C 277.644531 165.566406 275.972656 165.664062 274.886719 164.976562 C 274.277344 164.640625 273.625 164.03125 273.386719 163.359375 C 270.804688 157.117188 268.335938 150.710938 265.613281 144.488281 C 263.5 139.582031 260.878906 135.03125 257.113281 131.347656 C 255.632812 129.871094 252.28125 130.070312 251.398438 131.746094 C 249.3125 135.84375 248.25 140.21875 248.210938 144.871094 C 248.234375 150.921875 248.671875 156.910156 248.835938 162.941406 C 248.914062 164.480469 248.855469 166.035156 248.207031 167.394531 C 247.675781 168.597656 246.453125 169.898438 245.253906 170.355469 C 243.773438 170.847656 242.21875 169.804688 241.605469 168.484375 C 240.5 166.671875 239.769531 164.523438 238.726562 162.140625 Z M 238.726562 162.140625 "/>
</g>
</g>
</g>
<g clip-path="url(#clip85)" clip-rule="nonzero">
<g clip-path="url(#clip86)" clip-rule="nonzero">
<g clip-path="url(#clip87)" clip-rule="nonzero">
<path style=" stroke:none;fill-rule:nonzero;fill:rgb(100%,100%,100%);fill-opacity:1;" d="M 91.078125 278.066406 C 90.980469 279.34375 90.785156 280.921875 90.570312 282.359375 C 90.253906 284.09375 89.09375 284.824219 87.457031 285.199219 C 85.820312 285.574219 84.5 285.203125 83.96875 283.449219 C 83 280.632812 82.011719 277.675781 81.460938 274.800781 C 80.074219 268.097656 77.746094 261.675781 74.609375 255.511719 C 72.597656 251.292969 69.34375 248.242188 64.851562 246.351562 C 62.464844 245.425781 60.433594 246 58.503906 247.261719 C 54.507812 249.808594 51.945312 253.554688 50.332031 258.007812 C 48.328125 263.644531 46.773438 269.5 45.082031 275.371094 C 44.238281 278.308594 43.824219 281.324219 42.980469 284.261719 C 42.625 285.71875 41.816406 286.960938 41.03125 288.34375 C 40.242188 289.722656 38.804688 290.492188 37.210938 290.15625 C 35.75 289.804688 34.566406 288.425781 34.507812 287.023438 C 34.972656 275.554688 37.765625 264.597656 42.3125 254.089844 C 44.101562 249.890625 46.976562 246.382812 50.796875 243.582031 C 54.617188 240.78125 59.113281 239.714844 63.722656 240.460938 C 73.378906 242.03125 80.339844 247.367188 84.445312 256.351562 C 87.679688 263.207031 90.382812 270.28125 91.078125 278.066406 Z M 91.078125 278.066406 "/>
</g>
</g>
</g>
<g clip-path="url(#clip88)" clip-rule="nonzero">
<g clip-path="url(#clip89)" clip-rule="nonzero">
<g clip-path="url(#clip90)" clip-rule="nonzero">
<path style=" stroke:none;fill-rule:nonzero;fill:rgb(100%,100%,100%);fill-opacity:1;" d="M 417.820312 496.96875 C 416.804688 484.023438 413.136719 474.132812 407.613281 465.070312 C 406.882812 463.910156 405.363281 463.140625 404.003906 462.492188 C 402.625 461.703125 400.988281 462.078125 400.222656 463.597656 C 397.800781 468.308594 397.171875 473.75 396.074219 478.832031 C 395.542969 481.019531 394.558594 482.992188 393.4375 484.984375 C 392.648438 486.363281 391.171875 486.855469 389.535156 486.246094 C 388.945312 486.050781 388.292969 485.441406 388.054688 484.769531 C 387.582031 483.429688 387.089844 481.953125 387.027344 480.554688 C 386.789062 472.984375 388.535156 465.554688 390.445312 458.242188 C 391.644531 453.847656 398.539062 449.902344 403.1875 450.925781 C 406.972656 451.789062 410.1875 453.582031 412.730469 456.59375 C 417.285156 461.851562 420.539062 467.863281 422.851562 474.148438 C 426.777344 484.84375 428.933594 495.9375 428.902344 507.488281 C 428.824219 508.90625 428.191406 510.402344 427.839844 511.863281 C 427.386719 513.617188 426.324219 514.050781 424.511719 514.171875 C 422.972656 514.25 421.808594 513.996094 420.746094 512.457031 C 419.484375 510.527344 418.496094 508.558594 418.296875 506.191406 C 418.019531 502.289062 417.898438 498.507812 417.820312 496.96875 Z M 417.820312 496.96875 "/>
</g>
</g>
</g>
<g clip-path="url(#clip91)" clip-rule="nonzero">
<g clip-path="url(#clip92)" clip-rule="nonzero">
<g clip-path="url(#clip93)" clip-rule="nonzero">
<path style=" stroke:none;fill-rule:nonzero;fill:rgb(100%,100%,100%);fill-opacity:1;" d="M 126.660156 230.726562 C 127.191406 234.453125 127.863281 238.15625 128.261719 241.898438 C 128.402344 243.851562 127.535156 244.679688 126.136719 244.738281 C 124.441406 244.699219 123.355469 244.011719 122.566406 242.433594 C 121.460938 239.636719 119.960938 237.039062 119.113281 234.0625 C 116.445312 224.308594 117.171875 214.632812 119.292969 204.894531 C 119.683594 202.726562 121.082031 200.699219 122.066406 198.726562 C 125.808594 191.433594 135.738281 191.976562 139.703125 195.070312 C 142.085938 196.980469 144.355469 199.046875 145.972656 201.492188 C 152.5 211.675781 158.378906 222.234375 161.207031 234.078125 C 161.304688 234.765625 161.285156 235.613281 161.109375 236.34375 C 160.773438 237.9375 159.789062 238.925781 158.507812 239.8125 C 157.089844 240.71875 155.515625 240.523438 154.703125 238.808594 C 152.710938 234.730469 151.132812 230.59375 149.277344 226.496094 C 146.417969 220.289062 143.574219 214.222656 140.578125 208.035156 C 139.589844 206.066406 137.933594 204.332031 136.554688 202.558594 C 134.835938 200.414062 132.316406 199.507812 130.679688 200.867188 C 129.539062 201.738281 127.980469 202.664062 127.609375 203.984375 C 125.777344 208.894531 124.558594 214.136719 125.035156 219.417969 C 125.433594 223.160156 125.828125 226.90625 126.226562 230.648438 C 126.519531 230.746094 126.519531 230.746094 126.660156 230.726562 Z M 126.660156 230.726562 "/>
</g>
</g>
</g>
</g>
<clipPath id="clip94">
  <path d="M 371.859375 378.808594 L 505.359375 378.808594 L 505.359375 512.308594 L 371.859375 512.308594 Z M 371.859375 378.808594 "/>
</clipPath>
</defs>
<g id="surface1">
<rect x="0" y="0" width="1440" height="1079.999946" style="fill:rgb(100%,100%,100%);fill-opacity:1;stroke:none;"/>
<rect x="0" y="0" width="1440" height="1079.999946" style="fill:rgb(100%,100%,100%);fill-opacity:1;stroke:none;"/>
<rect x="0" y="0" width="1440" height="1079.999946" style="fill:rgb(69.799805%,86.268616%,92.939758%);fill-opacity:1;stroke:none;"/>
<use xlink:href="#surface5" transform="matrix(1,0,0,1,583,403)" mask="url(#mask0)"/>
<use xlink:href="#surface8" transform="matrix(1,0,0,1,23,-0.000000000000003846)" mask="url(#mask1)"/>
<use xlink:href="#surface11" transform="matrix(1,0,0,1,68,359)" mask="url(#mask2)"/>
<g clip-path="url(#clip94)" clip-rule="nonzero">
<path style=" stroke:none;fill-rule:nonzero;fill:rgb(92.158508%,96.469116%,97.648621%);fill-opacity:1;" d="M 371.859375 378.808594 L 505.359375 378.808594 L 505.359375 512.308594 L 371.859375 512.308594 Z M 371.859375 378.808594 "/>
</g>
</g>
</svg>
