<?xml version="1.0" encoding="UTF-8"?>
<svg xmlns="http://www.w3.org/2000/svg" xmlns:xlink="http://www.w3.org/1999/xlink" width="1440pt" height="959.999988pt" viewBox="0 0 1440 959.999988" version="1.2">
<g id="surface1">
<rect x="0" y="0" width="1440" height="959.999988" style="fill:rgb(100%,100%,100%);fill-opacity:1;stroke:none;"/>
<rect x="0" y="0" width="1440" height="959.999988" style="fill:rgb(100%,100%,100%);fill-opacity:1;stroke:none;"/>
<rect x="0" y="0" width="1440" height="959.999988" style="fill:rgb(0%,9.01947%,41.178894%);fill-opacity:1;stroke:none;"/>
<path style=" stroke:none;fill-rule:nonzero;fill:rgb(4.708862%,14.898682%,52.549744%);fill-opacity:1;" d="M 207.613281 -420.457031 C 201.902344 -420.457031 196.195312 -420.320312 190.492188 -420.039062 C 184.792969 -419.757812 179.097656 -419.339844 173.417969 -418.777344 C 167.734375 -418.21875 162.070312 -417.519531 156.421875 -416.683594 C 150.773438 -415.84375 145.152344 -414.871094 139.550781 -413.753906 C 133.953125 -412.640625 128.382812 -411.390625 122.84375 -410.003906 C 117.304688 -408.617188 111.804688 -407.09375 106.339844 -405.4375 C 100.878906 -403.78125 95.457031 -401.988281 90.082031 -400.066406 C 84.707031 -398.140625 79.382812 -396.089844 74.105469 -393.902344 C 68.832031 -391.71875 63.613281 -389.40625 58.453125 -386.964844 C 53.292969 -384.523438 48.191406 -381.957031 43.15625 -379.265625 C 38.121094 -376.574219 33.15625 -373.761719 28.257812 -370.824219 C 23.363281 -367.890625 18.539062 -364.835938 13.792969 -361.664062 C 9.042969 -358.492188 4.378906 -355.207031 -0.207031 -351.804688 C -4.792969 -348.402344 -9.292969 -344.890625 -13.707031 -341.269531 C -18.121094 -337.648438 -22.441406 -333.917969 -26.671875 -330.085938 C -30.902344 -326.25 -35.035156 -322.316406 -39.074219 -318.277344 C -43.109375 -314.242188 -47.046875 -310.105469 -50.882812 -305.875 C -54.714844 -301.644531 -58.445312 -297.324219 -62.066406 -292.910156 C -65.6875 -288.496094 -69.199219 -283.996094 -72.601562 -279.410156 C -76 -274.824219 -79.289062 -270.160156 -82.460938 -265.414062 C -85.632812 -260.664062 -88.6875 -255.84375 -91.621094 -250.945312 C -94.554688 -246.046875 -97.371094 -241.082031 -100.0625 -236.046875 C -102.753906 -231.011719 -105.320312 -225.914062 -107.757812 -220.75 C -110.199219 -215.589844 -112.515625 -210.371094 -114.699219 -205.097656 C -116.882812 -199.824219 -118.9375 -194.496094 -120.863281 -189.121094 C -122.785156 -183.746094 -124.574219 -178.328125 -126.234375 -172.863281 C -127.890625 -167.398438 -129.414062 -161.898438 -130.800781 -156.359375 C -132.1875 -150.820312 -133.4375 -145.253906 -134.550781 -139.652344 C -135.664062 -134.054688 -136.640625 -128.429688 -137.480469 -122.78125 C -138.316406 -117.132812 -139.015625 -111.46875 -139.574219 -105.785156 C -140.132812 -100.105469 -140.554688 -94.414062 -140.835938 -88.710938 C -141.113281 -83.007812 -141.253906 -77.300781 -141.253906 -71.59375 C -141.253906 -65.882812 -141.113281 -60.175781 -140.835938 -54.472656 C -140.554688 -48.769531 -140.132812 -43.078125 -139.574219 -37.398438 C -139.015625 -31.714844 -138.316406 -26.050781 -137.480469 -20.402344 C -136.640625 -14.753906 -135.664062 -9.132812 -134.550781 -3.53125 C -133.4375 2.066406 -132.1875 7.636719 -130.800781 13.175781 C -129.414062 18.714844 -127.890625 24.214844 -126.234375 29.679688 C -124.574219 35.140625 -122.785156 40.5625 -120.863281 45.9375 C -118.9375 51.3125 -116.882812 56.636719 -114.699219 61.914062 C -112.515625 67.1875 -110.199219 72.40625 -107.757812 77.566406 C -105.320312 82.730469 -102.753906 87.828125 -100.0625 92.863281 C -97.371094 97.898438 -94.554688 102.863281 -91.621094 107.761719 C -88.6875 112.660156 -85.632812 117.480469 -82.460938 122.226562 C -79.289062 126.976562 -76 131.640625 -72.601562 136.226562 C -69.199219 140.8125 -65.6875 145.3125 -62.066406 149.726562 C -58.445312 154.140625 -54.714844 158.460938 -50.882812 162.691406 C -47.046875 166.921875 -43.109375 171.058594 -39.074219 175.09375 C -35.035156 179.132812 -30.902344 183.066406 -26.671875 186.902344 C -22.441406 190.734375 -18.121094 194.464844 -13.707031 198.085938 C -9.292969 201.707031 -4.792969 205.21875 -0.207031 208.621094 C 4.378906 212.023438 9.042969 215.308594 13.792969 218.480469 C 18.539062 221.652344 23.363281 224.707031 28.257812 227.640625 C 33.15625 230.578125 38.121094 233.390625 43.15625 236.082031 C 48.191406 238.773438 53.292969 241.339844 58.453125 243.78125 C 63.613281 246.222656 68.832031 248.535156 74.105469 250.71875 C 79.382812 252.902344 84.707031 254.957031 90.082031 256.882812 C 95.457031 258.804688 100.878906 260.59375 106.339844 262.253906 C 111.804688 263.910156 117.304688 265.433594 122.84375 266.820312 C 128.382812 268.207031 133.953125 269.457031 139.550781 270.570312 C 145.152344 271.683594 150.773438 272.660156 156.421875 273.5 C 162.070312 274.335938 167.734375 275.035156 173.417969 275.59375 C 179.097656 276.15625 184.792969 276.574219 190.492188 276.855469 C 196.195312 277.136719 201.902344 277.273438 207.613281 277.273438 C 213.320312 277.273438 219.027344 277.136719 224.730469 276.855469 C 230.433594 276.574219 236.125 276.15625 241.808594 275.59375 C 247.488281 275.035156 253.152344 274.335938 258.800781 273.5 C 264.449219 272.660156 270.074219 271.683594 275.671875 270.570312 C 281.273438 269.457031 286.839844 268.207031 292.378906 266.820312 C 297.917969 265.433594 303.417969 263.910156 308.882812 262.253906 C 314.347656 260.59375 319.765625 258.804688 325.140625 256.882812 C 330.519531 254.957031 335.84375 252.902344 341.117188 250.71875 C 346.394531 248.535156 351.609375 246.222656 356.773438 243.78125 C 361.933594 241.339844 367.03125 238.773438 372.066406 236.082031 C 377.101562 233.390625 382.070312 230.578125 386.964844 227.640625 C 391.863281 224.707031 396.683594 221.652344 401.433594 218.480469 C 406.179688 215.308594 410.847656 212.019531 415.433594 208.621094 C 420.019531 205.21875 424.515625 201.707031 428.929688 198.085938 C 433.34375 194.464844 437.667969 190.734375 441.898438 186.902344 C 446.128906 183.066406 450.261719 179.132812 454.296875 175.09375 C 458.335938 171.058594 462.269531 166.921875 466.105469 162.691406 C 469.941406 158.460938 473.667969 154.140625 477.289062 149.726562 C 480.910156 145.3125 484.421875 140.8125 487.824219 136.226562 C 491.226562 131.640625 494.511719 126.976562 497.683594 122.226562 C 500.855469 117.480469 503.910156 112.660156 506.84375 107.761719 C 509.78125 102.863281 512.59375 97.898438 515.285156 92.863281 C 517.976562 87.828125 520.542969 82.730469 522.984375 77.566406 C 525.425781 72.40625 527.738281 67.1875 529.921875 61.914062 C 532.109375 56.636719 534.164062 51.3125 536.085938 45.9375 C 538.007812 40.5625 539.800781 35.140625 541.457031 29.679688 C 543.113281 24.214844 544.636719 18.714844 546.023438 13.175781 C 547.410156 7.636719 548.660156 2.066406 549.777344 -3.53125 C 550.890625 -9.132812 551.867188 -14.753906 552.703125 -20.402344 C 553.539062 -26.050781 554.238281 -31.714844 554.800781 -37.398438 C 555.359375 -43.078125 555.777344 -48.769531 556.058594 -54.472656 C 556.339844 -60.175781 556.480469 -65.882812 556.480469 -71.59375 C 556.480469 -77.300781 556.339844 -83.007812 556.058594 -88.710938 C 555.777344 -94.414062 555.359375 -100.105469 554.800781 -105.785156 C 554.238281 -111.46875 553.539062 -117.132812 552.703125 -122.78125 C 551.867188 -128.429688 550.890625 -134.054688 549.777344 -139.652344 C 548.660156 -145.253906 547.410156 -150.820312 546.023438 -156.359375 C 544.636719 -161.898438 543.113281 -167.398438 541.457031 -172.863281 C 539.800781 -178.328125 538.007812 -183.746094 536.085938 -189.121094 C 534.164062 -194.496094 532.109375 -199.824219 529.921875 -205.097656 C 527.738281 -210.371094 525.425781 -215.589844 522.984375 -220.75 C 520.542969 -225.914062 517.976562 -231.011719 515.285156 -236.046875 C 512.59375 -241.082031 509.78125 -246.046875 506.84375 -250.945312 C 503.910156 -255.84375 500.855469 -260.664062 497.683594 -265.414062 C 494.511719 -270.160156 491.226562 -274.824219 487.824219 -279.410156 C 484.421875 -283.996094 480.910156 -288.496094 477.289062 -292.910156 C 473.667969 -297.324219 469.941406 -301.644531 466.105469 -305.875 C 462.269531 -310.105469 458.335938 -314.242188 454.296875 -318.277344 C 450.261719 -322.316406 446.128906 -326.25 441.898438 -330.085938 C 437.667969 -333.917969 433.34375 -337.648438 428.929688 -341.269531 C 424.515625 -344.890625 420.019531 -348.402344 415.433594 -351.804688 C 410.847656 -355.207031 406.179688 -358.492188 401.433594 -361.664062 C 396.683594 -364.835938 391.863281 -367.890625 386.964844 -370.824219 C 382.070312 -373.761719 377.101562 -376.574219 372.066406 -379.265625 C 367.03125 -381.957031 361.933594 -384.523438 356.773438 -386.964844 C 351.609375 -389.40625 346.394531 -391.71875 341.117188 -393.902344 C 335.84375 -396.089844 330.519531 -398.140625 325.140625 -400.066406 C 319.765625 -401.988281 314.347656 -403.78125 308.882812 -405.4375 C 303.417969 -407.09375 297.917969 -408.617188 292.378906 -410.003906 C 286.839844 -411.390625 281.273438 -412.640625 275.671875 -413.753906 C 270.074219 -414.871094 264.449219 -415.84375 258.800781 -416.683594 C 253.152344 -417.519531 247.488281 -418.21875 241.808594 -418.777344 C 236.125 -419.339844 230.433594 -419.757812 224.730469 -420.039062 C 219.027344 -420.320312 213.320312 -420.457031 207.613281 -420.457031 Z M 207.613281 -420.457031 "/>
<path style=" stroke:none;fill-rule:nonzero;fill:rgb(29.40979%,22.349548%,70.979309%);fill-opacity:1;" d="M 1404.410156 534.4375 C 1402.121094 534.4375 1399.832031 534.492188 1397.546875 534.605469 C 1395.257812 534.71875 1392.976562 534.886719 1390.699219 535.109375 C 1388.421875 535.335938 1386.148438 535.613281 1383.882812 535.949219 C 1381.621094 536.285156 1379.363281 536.675781 1377.117188 537.125 C 1374.875 537.570312 1372.640625 538.074219 1370.417969 538.628906 C 1368.199219 539.183594 1365.992188 539.796875 1363.800781 540.460938 C 1361.609375 541.125 1359.4375 541.84375 1357.28125 542.613281 C 1355.125 543.386719 1352.992188 544.207031 1350.875 545.085938 C 1348.761719 545.960938 1346.667969 546.890625 1344.597656 547.867188 C 1342.527344 548.847656 1340.484375 549.875 1338.464844 550.953125 C 1336.445312 552.035156 1334.453125 553.164062 1332.492188 554.339844 C 1330.527344 555.515625 1328.59375 556.742188 1326.691406 558.011719 C 1324.785156 559.285156 1322.914062 560.601562 1321.074219 561.964844 C 1319.238281 563.332031 1317.433594 564.738281 1315.664062 566.191406 C 1313.894531 567.644531 1312.160156 569.136719 1310.464844 570.675781 C 1308.765625 572.214844 1307.109375 573.792969 1305.492188 575.410156 C 1303.871094 577.027344 1302.292969 578.6875 1300.757812 580.382812 C 1299.21875 582.078125 1297.722656 583.8125 1296.269531 585.582031 C 1294.820312 587.351562 1293.410156 589.15625 1292.046875 590.996094 C 1290.683594 592.835938 1289.367188 594.707031 1288.09375 596.609375 C 1286.820312 598.511719 1285.597656 600.445312 1284.417969 602.410156 C 1283.242188 604.375 1282.113281 606.367188 1281.035156 608.382812 C 1279.957031 610.402344 1278.925781 612.449219 1277.949219 614.519531 C 1276.96875 616.585938 1276.042969 618.679688 1275.164062 620.792969 C 1274.289062 622.910156 1273.464844 625.046875 1272.695312 627.199219 C 1271.921875 629.355469 1271.207031 631.53125 1270.539062 633.722656 C 1269.875 635.910156 1269.265625 638.117188 1268.710938 640.339844 C 1268.152344 642.558594 1267.652344 644.792969 1267.203125 647.039062 C 1266.757812 649.285156 1266.367188 651.539062 1266.03125 653.804688 C 1265.695312 656.066406 1265.414062 658.339844 1265.191406 660.617188 C 1264.964844 662.894531 1264.796875 665.179688 1264.6875 667.464844 C 1264.574219 669.753906 1264.515625 672.039062 1264.515625 674.328125 C 1264.515625 676.621094 1264.574219 678.90625 1264.6875 681.195312 C 1264.796875 683.480469 1264.964844 685.761719 1265.191406 688.042969 C 1265.414062 690.320312 1265.695312 692.589844 1266.03125 694.855469 C 1266.367188 697.121094 1266.757812 699.375 1267.203125 701.621094 C 1267.652344 703.867188 1268.152344 706.101562 1268.710938 708.320312 C 1269.265625 710.542969 1269.875 712.746094 1270.539062 714.9375 C 1271.207031 717.128906 1271.921875 719.304688 1272.695312 721.457031 C 1273.464844 723.613281 1274.289062 725.75 1275.164062 727.863281 C 1276.042969 729.980469 1276.96875 732.074219 1277.949219 734.140625 C 1278.925781 736.210938 1279.957031 738.257812 1281.035156 740.273438 C 1282.113281 742.292969 1283.242188 744.285156 1284.417969 746.25 C 1285.597656 748.214844 1286.820312 750.148438 1288.09375 752.050781 C 1289.367188 753.953125 1290.683594 755.824219 1292.046875 757.664062 C 1293.410156 759.503906 1294.820312 761.308594 1296.269531 763.078125 C 1297.722656 764.847656 1299.21875 766.582031 1300.757812 768.277344 C 1302.292969 769.972656 1303.871094 771.628906 1305.492188 773.25 C 1307.109375 774.867188 1308.765625 776.445312 1310.464844 777.984375 C 1312.160156 779.523438 1313.894531 781.015625 1315.664062 782.46875 C 1317.433594 783.921875 1319.238281 785.328125 1321.074219 786.691406 C 1322.914062 788.058594 1324.785156 789.375 1326.691406 790.648438 C 1328.59375 791.917969 1330.527344 793.144531 1332.492188 794.320312 C 1334.453125 795.496094 1336.445312 796.625 1338.464844 797.703125 C 1340.484375 798.785156 1342.527344 799.8125 1344.597656 800.792969 C 1346.667969 801.769531 1348.761719 802.699219 1350.875 803.574219 C 1352.992188 804.449219 1355.125 805.273438 1357.28125 806.046875 C 1359.4375 806.816406 1361.609375 807.535156 1363.800781 808.199219 C 1365.992188 808.863281 1368.199219 809.472656 1370.417969 810.03125 C 1372.640625 810.585938 1374.875 811.089844 1377.117188 811.535156 C 1379.363281 811.980469 1381.621094 812.375 1383.882812 812.710938 C 1386.148438 813.046875 1388.421875 813.324219 1390.699219 813.550781 C 1392.976562 813.773438 1395.257812 813.941406 1397.546875 814.054688 C 1399.832031 814.167969 1402.121094 814.222656 1404.410156 814.222656 C 1406.699219 814.222656 1408.988281 814.167969 1411.273438 814.054688 C 1413.5625 813.941406 1415.84375 813.773438 1418.121094 813.550781 C 1420.402344 813.324219 1422.671875 813.046875 1424.9375 812.710938 C 1427.203125 812.375 1429.457031 811.980469 1431.703125 811.535156 C 1433.949219 811.089844 1436.179688 810.585938 1438.402344 810.03125 C 1440.621094 809.472656 1442.828125 808.863281 1445.019531 808.199219 C 1447.210938 807.535156 1449.382812 806.816406 1451.539062 806.046875 C 1453.695312 805.273438 1455.832031 804.449219 1457.945312 803.574219 C 1460.0625 802.699219 1462.152344 801.769531 1464.222656 800.792969 C 1466.292969 799.8125 1468.335938 798.785156 1470.355469 797.703125 C 1472.375 796.625 1474.367188 795.496094 1476.332031 794.320312 C 1478.292969 793.144531 1480.226562 791.917969 1482.132812 790.648438 C 1484.035156 789.375 1485.90625 788.058594 1487.746094 786.691406 C 1489.582031 785.328125 1491.386719 783.921875 1493.15625 782.46875 C 1494.929688 781.015625 1496.660156 779.523438 1498.355469 777.984375 C 1500.054688 776.445312 1501.710938 774.867188 1503.332031 773.25 C 1504.949219 771.628906 1506.527344 769.972656 1508.066406 768.277344 C 1509.601562 766.582031 1511.097656 764.847656 1512.550781 763.078125 C 1514.003906 761.308594 1515.410156 759.503906 1516.773438 757.664062 C 1518.136719 755.824219 1519.457031 753.953125 1520.726562 752.050781 C 1522 750.148438 1523.222656 748.214844 1524.402344 746.25 C 1525.578125 744.285156 1526.707031 742.292969 1527.785156 740.273438 C 1528.863281 738.257812 1529.894531 736.210938 1530.871094 734.140625 C 1531.851562 732.074219 1532.777344 729.980469 1533.65625 727.863281 C 1534.53125 725.75 1535.355469 723.613281 1536.125 721.457031 C 1536.898438 719.304688 1537.617188 717.128906 1538.28125 714.9375 C 1538.945312 712.746094 1539.554688 710.542969 1540.113281 708.320312 C 1540.667969 706.101562 1541.167969 703.867188 1541.617188 701.621094 C 1542.0625 699.375 1542.453125 697.121094 1542.789062 694.855469 C 1543.125 692.589844 1543.40625 690.320312 1543.628906 688.042969 C 1543.855469 685.761719 1544.023438 683.480469 1544.136719 681.195312 C 1544.246094 678.90625 1544.304688 676.621094 1544.304688 674.328125 C 1544.304688 672.039062 1544.246094 669.753906 1544.136719 667.464844 C 1544.023438 665.179688 1543.855469 662.894531 1543.628906 660.617188 C 1543.40625 658.339844 1543.125 656.066406 1542.789062 653.804688 C 1542.453125 651.539062 1542.0625 649.285156 1541.617188 647.039062 C 1541.167969 644.792969 1540.667969 642.558594 1540.113281 640.339844 C 1539.554688 638.117188 1538.945312 635.910156 1538.28125 633.722656 C 1537.617188 631.53125 1536.898438 629.355469 1536.125 627.199219 C 1535.355469 625.046875 1534.53125 622.910156 1533.65625 620.792969 C 1532.777344 618.679688 1531.851562 616.585938 1530.871094 614.519531 C 1529.894531 612.449219 1528.863281 610.402344 1527.785156 608.382812 C 1526.707031 606.367188 1525.578125 604.375 1524.402344 602.410156 C 1523.222656 600.445312 1522 598.511719 1520.726562 596.609375 C 1519.457031 594.707031 1518.136719 592.835938 1516.773438 590.996094 C 1515.410156 589.15625 1514.003906 587.351562 1512.550781 585.582031 C 1511.097656 583.8125 1509.601562 582.078125 1508.066406 580.382812 C 1506.527344 578.6875 1504.949219 577.027344 1503.332031 575.410156 C 1501.710938 573.792969 1500.054688 572.214844 1498.355469 570.675781 C 1496.660156 569.136719 1494.929688 567.644531 1493.15625 566.191406 C 1491.386719 564.738281 1489.582031 563.332031 1487.746094 561.964844 C 1485.90625 560.601562 1484.035156 559.285156 1482.132812 558.011719 C 1480.226562 556.742188 1478.292969 555.515625 1476.332031 554.339844 C 1474.367188 553.164062 1472.375 552.035156 1470.355469 550.953125 C 1468.335938 549.875 1466.292969 548.847656 1464.222656 547.867188 C 1462.152344 546.890625 1460.0625 545.960938 1457.945312 545.085938 C 1455.832031 544.207031 1453.695312 543.386719 1451.539062 542.613281 C 1449.382812 541.84375 1447.210938 541.125 1445.019531 540.460938 C 1442.828125 539.796875 1440.621094 539.183594 1438.402344 538.628906 C 1436.179688 538.074219 1433.949219 537.570312 1431.703125 537.125 C 1429.457031 536.675781 1427.203125 536.285156 1424.9375 535.949219 C 1422.671875 535.613281 1420.402344 535.335938 1418.121094 535.109375 C 1415.84375 534.886719 1413.5625 534.71875 1411.273438 534.605469 C 1408.988281 534.492188 1406.699219 534.4375 1404.410156 534.4375 Z M 1404.410156 534.4375 "/>
<path style=" stroke:none;fill-rule:nonzero;fill:rgb(4.708862%,14.898682%,52.549744%);fill-opacity:1;" d="M 1116.796875 674.328125 C 1107.996094 674.328125 1099.199219 674.546875 1090.410156 674.976562 C 1081.621094 675.410156 1072.847656 676.054688 1064.089844 676.917969 C 1055.332031 677.78125 1046.597656 678.859375 1037.894531 680.148438 C 1029.1875 681.441406 1020.519531 682.945312 1011.886719 684.664062 C 1003.257812 686.378906 994.671875 688.308594 986.136719 690.445312 C 977.597656 692.582031 969.121094 694.929688 960.699219 697.484375 C 952.277344 700.039062 943.921875 702.800781 935.636719 705.765625 C 927.351562 708.730469 919.140625 711.894531 911.011719 715.261719 C 902.882812 718.628906 894.835938 722.195312 886.882812 725.957031 C 878.925781 729.722656 871.066406 733.675781 863.304688 737.824219 C 855.546875 741.972656 847.890625 746.3125 840.339844 750.835938 C 832.792969 755.359375 825.359375 760.066406 818.042969 764.957031 C 810.726562 769.84375 803.53125 774.910156 796.464844 780.152344 C 789.394531 785.394531 782.460938 790.808594 775.65625 796.390625 C 768.851562 801.976562 762.191406 807.722656 755.671875 813.632812 C 749.148438 819.542969 742.777344 825.609375 736.554688 831.832031 C 730.332031 838.054688 724.265625 844.425781 718.355469 850.945312 C 712.445312 857.46875 706.699219 864.128906 701.117188 870.933594 C 695.53125 877.734375 690.121094 884.671875 684.878906 891.738281 C 679.636719 898.808594 674.570312 906 669.679688 913.320312 C 664.789062 920.636719 660.082031 928.070312 655.558594 935.617188 C 651.035156 943.167969 646.699219 950.820312 642.550781 958.582031 C 638.402344 966.34375 634.445312 974.203125 630.683594 982.15625 C 626.921875 990.113281 623.355469 998.15625 619.988281 1006.289062 C 616.621094 1014.417969 613.453125 1022.625 610.488281 1030.914062 C 607.523438 1039.199219 604.765625 1047.550781 602.210938 1055.972656 C 599.65625 1064.394531 597.308594 1072.875 595.167969 1081.410156 C 593.03125 1089.949219 591.101562 1098.53125 589.386719 1107.164062 C 587.667969 1115.796875 586.164062 1124.464844 584.875 1133.167969 C 583.582031 1141.875 582.507812 1150.605469 581.644531 1159.363281 C 580.78125 1168.121094 580.132812 1176.898438 579.703125 1185.6875 C 579.269531 1194.476562 579.054688 1203.273438 579.054688 1212.074219 C 579.054688 1220.875 579.269531 1229.667969 579.703125 1238.457031 C 580.132812 1247.25 580.78125 1256.023438 581.644531 1264.78125 C 582.507812 1273.539062 583.582031 1282.269531 584.875 1290.976562 C 586.164062 1299.679688 587.667969 1308.347656 589.386719 1316.980469 C 591.101562 1325.613281 593.03125 1334.195312 595.167969 1342.734375 C 597.308594 1351.269531 599.65625 1359.75 602.210938 1368.171875 C 604.765625 1376.59375 607.523438 1384.945312 610.488281 1393.234375 C 613.453125 1401.519531 616.621094 1409.726562 619.988281 1417.859375 C 623.355469 1425.988281 626.921875 1434.03125 630.683594 1441.988281 C 634.445312 1449.941406 638.402344 1457.800781 642.550781 1465.5625 C 646.699219 1473.324219 651.035156 1480.980469 655.558594 1488.527344 C 660.082031 1496.074219 664.789062 1503.507812 669.679688 1510.828125 C 674.570312 1518.144531 679.636719 1525.335938 684.878906 1532.40625 C 690.121094 1539.472656 695.53125 1546.410156 701.117188 1553.214844 C 706.699219 1560.015625 712.445312 1566.679688 718.355469 1573.199219 C 724.265625 1579.71875 730.332031 1586.089844 736.554688 1592.3125 C 742.777344 1598.539062 749.148438 1604.605469 755.671875 1610.511719 C 762.191406 1616.421875 768.851562 1622.171875 775.65625 1627.753906 C 782.460938 1633.335938 789.394531 1638.75 796.464844 1643.992188 C 803.53125 1649.234375 810.726562 1654.300781 818.042969 1659.1875 C 825.359375 1664.078125 832.792969 1668.785156 840.339844 1673.308594 C 847.890625 1677.835938 855.546875 1682.171875 863.304688 1686.320312 C 871.066406 1690.46875 878.925781 1694.421875 886.882812 1698.1875 C 894.835938 1701.949219 902.882812 1705.515625 911.011719 1708.882812 C 919.140625 1712.25 927.351562 1715.417969 935.636719 1718.382812 C 943.921875 1721.347656 952.277344 1724.105469 960.699219 1726.660156 C 969.121094 1729.214844 977.597656 1731.5625 986.136719 1733.699219 C 994.671875 1735.839844 1003.257812 1737.765625 1011.886719 1739.484375 C 1020.519531 1741.199219 1029.1875 1742.703125 1037.894531 1743.996094 C 1046.597656 1745.285156 1055.332031 1746.363281 1064.089844 1747.226562 C 1072.847656 1748.089844 1081.621094 1748.734375 1090.410156 1749.167969 C 1099.199219 1749.597656 1107.996094 1749.816406 1116.796875 1749.816406 C 1125.597656 1749.816406 1134.394531 1749.597656 1143.183594 1749.167969 C 1151.972656 1748.734375 1160.746094 1748.089844 1169.503906 1747.226562 C 1178.261719 1746.363281 1186.996094 1745.285156 1195.699219 1743.996094 C 1204.40625 1742.703125 1213.074219 1741.199219 1221.707031 1739.484375 C 1230.335938 1737.765625 1238.921875 1735.839844 1247.457031 1733.699219 C 1255.996094 1731.5625 1264.472656 1729.214844 1272.894531 1726.660156 C 1281.316406 1724.105469 1289.671875 1721.347656 1297.957031 1718.382812 C 1306.242188 1715.417969 1314.453125 1712.25 1322.582031 1708.882812 C 1330.710938 1705.515625 1338.753906 1701.949219 1346.710938 1698.1875 C 1354.667969 1694.421875 1362.527344 1690.46875 1370.285156 1686.320312 C 1378.046875 1682.171875 1385.703125 1677.835938 1393.25 1673.308594 C 1400.800781 1668.785156 1408.234375 1664.078125 1415.550781 1659.1875 C 1422.867188 1654.300781 1430.0625 1649.234375 1437.128906 1643.992188 C 1444.199219 1638.75 1451.132812 1633.335938 1457.9375 1627.753906 C 1464.738281 1622.171875 1471.402344 1616.421875 1477.921875 1610.511719 C 1484.445312 1604.605469 1490.816406 1598.539062 1497.039062 1592.3125 C 1503.261719 1586.089844 1509.328125 1579.71875 1515.238281 1573.199219 C 1521.148438 1566.679688 1526.894531 1560.015625 1532.476562 1553.214844 C 1538.058594 1546.410156 1543.472656 1539.472656 1548.714844 1532.40625 C 1553.957031 1525.335938 1559.023438 1518.144531 1563.914062 1510.828125 C 1568.804688 1503.507812 1573.507812 1496.074219 1578.035156 1488.527344 C 1582.558594 1480.980469 1586.894531 1473.324219 1591.042969 1465.5625 C 1595.191406 1457.800781 1599.148438 1449.941406 1602.910156 1441.988281 C 1606.671875 1434.03125 1610.238281 1425.988281 1613.605469 1417.859375 C 1616.972656 1409.726562 1620.140625 1401.519531 1623.105469 1393.234375 C 1626.070312 1384.945312 1628.828125 1376.59375 1631.382812 1368.171875 C 1633.9375 1359.75 1636.285156 1351.269531 1638.425781 1342.734375 C 1640.5625 1334.195312 1642.488281 1325.613281 1644.207031 1316.980469 C 1645.925781 1308.347656 1647.429688 1299.679688 1648.71875 1290.976562 C 1650.011719 1282.269531 1651.085938 1273.539062 1651.949219 1264.78125 C 1652.8125 1256.023438 1653.460938 1247.25 1653.890625 1238.457031 C 1654.324219 1229.667969 1654.539062 1220.875 1654.539062 1212.074219 C 1654.539062 1203.273438 1654.324219 1194.476562 1653.890625 1185.6875 C 1653.460938 1176.898438 1652.8125 1168.121094 1651.949219 1159.363281 C 1651.085938 1150.605469 1650.011719 1141.875 1648.71875 1133.167969 C 1647.429688 1124.464844 1645.925781 1115.796875 1644.207031 1107.164062 C 1642.488281 1098.53125 1640.5625 1089.949219 1638.425781 1081.410156 C 1636.285156 1072.875 1633.9375 1064.394531 1631.382812 1055.972656 C 1628.828125 1047.550781 1626.070312 1039.199219 1623.105469 1030.914062 C 1620.140625 1022.625 1616.972656 1014.417969 1613.605469 1006.289062 C 1610.238281 998.15625 1606.671875 990.113281 1602.910156 982.15625 C 1599.148438 974.203125 1595.191406 966.34375 1591.042969 958.582031 C 1586.894531 950.820312 1582.558594 943.167969 1578.035156 935.617188 C 1573.507812 928.070312 1568.804688 920.636719 1563.914062 913.320312 C 1559.023438 906 1553.957031 898.808594 1548.714844 891.738281 C 1543.472656 884.671875 1538.058594 877.734375 1532.476562 870.933594 C 1526.894531 864.128906 1521.148438 857.46875 1515.238281 850.945312 C 1509.328125 844.425781 1503.261719 838.054688 1497.039062 831.832031 C 1490.816406 825.609375 1484.445312 819.542969 1477.921875 813.632812 C 1471.402344 807.722656 1464.738281 801.976562 1457.9375 796.390625 C 1451.132812 790.808594 1444.199219 785.394531 1437.128906 780.152344 C 1430.0625 774.910156 1422.867188 769.84375 1415.550781 764.957031 C 1408.234375 760.066406 1400.800781 755.359375 1393.25 750.835938 C 1385.703125 746.3125 1378.046875 741.972656 1370.285156 737.824219 C 1362.527344 733.675781 1354.667969 729.722656 1346.710938 725.957031 C 1338.753906 722.195312 1330.710938 718.628906 1322.582031 715.261719 C 1314.453125 711.894531 1306.242188 708.730469 1297.957031 705.765625 C 1289.671875 702.800781 1281.316406 700.039062 1272.894531 697.484375 C 1264.472656 694.929688 1255.996094 692.582031 1247.457031 690.445312 C 1238.921875 688.308594 1230.335938 686.378906 1221.707031 684.664062 C 1213.074219 682.945312 1204.40625 681.441406 1195.699219 680.148438 C 1186.996094 678.859375 1178.261719 677.78125 1169.503906 676.917969 C 1160.746094 676.054688 1151.972656 675.410156 1143.183594 674.976562 C 1134.394531 674.546875 1125.597656 674.328125 1116.796875 674.328125 Z M 1116.796875 674.328125 "/>
<path style=" stroke:none;fill-rule:nonzero;fill:rgb(29.40979%,22.349548%,70.979309%);fill-opacity:1;" d="M 556.480469 62.574219 C 554.535156 62.574219 552.59375 62.621094 550.652344 62.714844 C 548.710938 62.8125 546.773438 62.953125 544.839844 63.144531 C 542.90625 63.335938 540.976562 63.574219 539.054688 63.859375 C 537.132812 64.144531 535.21875 64.476562 533.3125 64.855469 C 531.40625 65.234375 529.507812 65.660156 527.625 66.132812 C 525.738281 66.605469 523.867188 67.125 522.003906 67.6875 C 520.144531 68.25 518.300781 68.859375 516.472656 69.515625 C 514.640625 70.171875 512.828125 70.871094 511.03125 71.613281 C 509.238281 72.355469 507.460938 73.144531 505.703125 73.976562 C 503.945312 74.804688 502.210938 75.679688 500.496094 76.597656 C 498.78125 77.511719 497.09375 78.46875 495.425781 79.46875 C 493.757812 80.46875 492.117188 81.507812 490.5 82.585938 C 488.886719 83.667969 487.296875 84.785156 485.734375 85.945312 C 484.175781 87.101562 482.640625 88.296875 481.140625 89.53125 C 479.636719 90.761719 478.167969 92.03125 476.726562 93.335938 C 475.285156 94.644531 473.878906 95.984375 472.503906 97.355469 C 471.128906 98.730469 469.789062 100.136719 468.484375 101.578125 C 467.179688 103.019531 465.910156 104.488281 464.679688 105.992188 C 463.445312 107.496094 462.25 109.027344 461.09375 110.585938 C 459.933594 112.148438 458.816406 113.738281 457.734375 115.351562 C 456.65625 116.96875 455.617188 118.609375 454.617188 120.277344 C 453.617188 121.945312 452.660156 123.636719 451.746094 125.347656 C 450.828125 127.0625 449.953125 128.796875 449.125 130.554688 C 448.292969 132.3125 447.503906 134.089844 446.761719 135.882812 C 446.019531 137.679688 445.320312 139.492188 444.664062 141.324219 C 444.007812 143.152344 443.398438 144.996094 442.835938 146.859375 C 442.269531 148.71875 441.753906 150.589844 441.28125 152.476562 C 440.808594 154.359375 440.382812 156.257812 440.003906 158.164062 C 439.625 160.070312 439.292969 161.984375 439.007812 163.90625 C 438.722656 165.828125 438.484375 167.757812 438.292969 169.691406 C 438.101562 171.625 437.960938 173.5625 437.863281 175.503906 C 437.769531 177.445312 437.722656 179.386719 437.722656 181.332031 C 437.722656 183.273438 437.769531 185.21875 437.863281 187.160156 C 437.960938 189.097656 438.101562 191.039062 438.292969 192.972656 C 438.484375 194.90625 438.722656 196.832031 439.007812 198.757812 C 439.292969 200.679688 439.625 202.59375 440.003906 204.5 C 440.382812 206.40625 440.808594 208.300781 441.28125 210.1875 C 441.753906 212.070312 442.269531 213.945312 442.835938 215.804688 C 443.398438 217.664062 444.007812 219.507812 444.664062 221.339844 C 445.320312 223.167969 446.019531 224.980469 446.761719 226.777344 C 447.503906 228.574219 448.292969 230.347656 449.125 232.105469 C 449.953125 233.863281 450.828125 235.597656 451.746094 237.3125 C 452.660156 239.027344 453.617188 240.71875 454.617188 242.382812 C 455.617188 244.050781 456.65625 245.691406 457.734375 247.308594 C 458.816406 248.925781 459.933594 250.515625 461.09375 252.074219 C 462.25 253.636719 463.445312 255.167969 464.679688 256.671875 C 465.910156 258.171875 467.179688 259.644531 468.484375 261.082031 C 469.789062 262.523438 471.128906 263.929688 472.503906 265.304688 C 473.878906 266.679688 475.285156 268.019531 476.726562 269.324219 C 478.167969 270.628906 479.636719 271.898438 481.140625 273.132812 C 482.640625 274.363281 484.175781 275.558594 485.734375 276.71875 C 487.296875 277.875 488.886719 278.996094 490.5 280.074219 C 492.117188 281.152344 493.757812 282.195312 495.425781 283.191406 C 497.09375 284.191406 498.78125 285.148438 500.496094 286.066406 C 502.210938 286.980469 503.945312 287.855469 505.703125 288.6875 C 507.460938 289.515625 509.238281 290.304688 511.03125 291.046875 C 512.828125 291.792969 514.640625 292.492188 516.472656 293.144531 C 518.300781 293.800781 520.144531 294.410156 522.003906 294.976562 C 523.867188 295.539062 525.738281 296.058594 527.625 296.53125 C 529.507812 297 531.40625 297.425781 533.3125 297.808594 C 535.21875 298.1875 537.132812 298.519531 539.054688 298.804688 C 540.976562 299.089844 542.90625 299.328125 544.839844 299.515625 C 546.773438 299.707031 548.710938 299.851562 550.652344 299.945312 C 552.59375 300.039062 554.535156 300.089844 556.480469 300.089844 C 558.421875 300.089844 560.363281 300.039062 562.304688 299.945312 C 564.246094 299.851562 566.183594 299.707031 568.121094 299.515625 C 570.054688 299.328125 571.980469 299.089844 573.90625 298.804688 C 575.828125 298.519531 577.742188 298.1875 579.648438 297.808594 C 581.554688 297.425781 583.449219 297 585.335938 296.53125 C 587.21875 296.058594 589.09375 295.539062 590.953125 294.976562 C 592.8125 294.410156 594.65625 293.800781 596.488281 293.144531 C 598.316406 292.492188 600.128906 291.792969 601.925781 291.046875 C 603.722656 290.304688 605.496094 289.515625 607.253906 288.6875 C 609.011719 287.855469 610.746094 286.980469 612.460938 286.066406 C 614.175781 285.148438 615.867188 284.191406 617.53125 283.191406 C 619.199219 282.195312 620.839844 281.152344 622.457031 280.074219 C 624.074219 278.996094 625.660156 277.875 627.222656 276.71875 C 628.785156 275.558594 630.316406 274.363281 631.816406 273.132812 C 633.320312 271.898438 634.792969 270.628906 636.230469 269.324219 C 637.671875 268.019531 639.078125 266.679688 640.453125 265.304688 C 641.828125 263.929688 643.167969 262.523438 644.472656 261.082031 C 645.777344 259.644531 647.046875 258.171875 648.28125 256.671875 C 649.511719 255.167969 650.707031 253.636719 651.867188 252.074219 C 653.023438 250.515625 654.140625 248.925781 655.222656 247.308594 C 656.300781 245.691406 657.339844 244.050781 658.339844 242.382812 C 659.339844 240.71875 660.296875 239.027344 661.214844 237.3125 C 662.128906 235.597656 663.003906 233.863281 663.835938 232.105469 C 664.664062 230.347656 665.453125 228.574219 666.195312 226.777344 C 666.941406 224.980469 667.640625 223.167969 668.292969 221.339844 C 668.949219 219.507812 669.558594 217.664062 670.121094 215.804688 C 670.6875 213.945312 671.207031 212.070312 671.675781 210.1875 C 672.148438 208.300781 672.574219 206.40625 672.953125 204.5 C 673.332031 202.59375 673.664062 200.679688 673.949219 198.757812 C 674.238281 196.832031 674.472656 194.90625 674.664062 192.972656 C 674.855469 191.039062 675 189.097656 675.09375 187.160156 C 675.1875 185.21875 675.238281 183.273438 675.238281 181.332031 C 675.238281 179.386719 675.1875 177.445312 675.09375 175.503906 C 675 173.5625 674.855469 171.625 674.664062 169.691406 C 674.472656 167.757812 674.238281 165.828125 673.949219 163.90625 C 673.664062 161.984375 673.332031 160.070312 672.953125 158.164062 C 672.574219 156.257812 672.148438 154.359375 671.675781 152.476562 C 671.207031 150.589844 670.6875 148.71875 670.121094 146.859375 C 669.558594 144.996094 668.949219 143.152344 668.292969 141.324219 C 667.640625 139.492188 666.941406 137.679688 666.195312 135.882812 C 665.453125 134.089844 664.664062 132.3125 663.835938 130.554688 C 663.003906 128.796875 662.128906 127.0625 661.214844 125.347656 C 660.296875 123.636719 659.339844 121.945312 658.339844 120.277344 C 657.339844 118.609375 656.300781 116.96875 655.222656 115.351562 C 654.140625 113.738281 653.023438 112.148438 651.867188 110.585938 C 650.707031 109.027344 649.511719 107.496094 648.28125 105.992188 C 647.046875 104.488281 645.777344 103.019531 644.472656 101.578125 C 643.167969 100.136719 641.828125 98.730469 640.453125 97.355469 C 639.078125 95.984375 637.671875 94.644531 636.230469 93.335938 C 634.792969 92.03125 633.320312 90.761719 631.816406 89.53125 C 630.316406 88.296875 628.785156 87.101562 627.222656 85.945312 C 625.660156 84.785156 624.074219 83.667969 622.457031 82.585938 C 620.839844 81.507812 619.199219 80.46875 617.53125 79.46875 C 615.867188 78.46875 614.175781 77.511719 612.460938 76.597656 C 610.746094 75.679688 609.011719 74.804688 607.253906 73.976562 C 605.496094 73.144531 603.722656 72.355469 601.925781 71.613281 C 600.128906 70.871094 598.316406 70.171875 596.488281 69.515625 C 594.65625 68.859375 592.8125 68.25 590.953125 67.6875 C 589.09375 67.125 587.21875 66.605469 585.335938 66.132812 C 583.449219 65.660156 581.554688 65.234375 579.648438 64.855469 C 577.742188 64.476562 575.828125 64.144531 573.90625 63.859375 C 571.980469 63.574219 570.054688 63.335938 568.121094 63.144531 C 566.183594 62.953125 564.246094 62.8125 562.304688 62.714844 C 560.363281 62.621094 558.421875 62.574219 556.480469 62.574219 Z M 556.480469 62.574219 "/>
</g>
</svg>
