<?xml version="1.0" encoding="UTF-8"?>
<svg xmlns="http://www.w3.org/2000/svg" xmlns:xlink="http://www.w3.org/1999/xlink" width="48.75pt" height="30.000001pt" viewBox="0 0 48.75 30.000001" version="1.2">
<defs>
<clipPath id="clip1">
  <path d="M 0.664062 3.042969 L 21.539062 3.042969 L 21.539062 23.917969 L 0.664062 23.917969 Z M 0.664062 3.042969 "/>
</clipPath>
<clipPath id="clip2">
  <path d="M 23.574219 1.273438 L 36.703125 1.273438 L 36.703125 26.078125 L 23.574219 26.078125 Z M 23.574219 1.273438 "/>
</clipPath>
<clipPath id="clip3">
  <path d="M 23.574219 10 L 26 10 L 26 12 L 23.574219 12 Z M 23.574219 10 "/>
</clipPath>
<clipPath id="clip4">
  <path d="M 23.574219 13 L 26 13 L 26 15 L 23.574219 15 Z M 23.574219 13 "/>
</clipPath>
<clipPath id="clip5">
  <path d="M 23.574219 16 L 26 16 L 26 18 L 23.574219 18 Z M 23.574219 16 "/>
</clipPath>
</defs>
<g id="surface1">
<g clip-path="url(#clip1)" clip-rule="nonzero">
<path style=" stroke:none;fill-rule:nonzero;fill:rgb(84.309387%,9.799194%,12.548828%);fill-opacity:1;" d="M 18.375 10.148438 L 16.570312 18.460938 C 16.425781 19.234375 15.664062 19.726562 14.898438 19.539062 C 14.203125 19.367188 13.753906 18.691406 13.875 17.984375 L 15.507812 9.976562 L 14.015625 10.289062 C 14.015625 10.289062 16 8.464844 17.128906 8.464844 C 17.957031 8.464844 18.527344 9.332031 18.375 10.148438 Z M 13.640625 10.148438 L 11.839844 18.460938 C 11.695312 19.234375 10.929688 19.726562 10.164062 19.539062 C 9.46875 19.367188 9.023438 18.691406 9.140625 17.984375 L 10.773438 9.976562 L 9.285156 10.289062 C 9.285156 10.289062 11.265625 8.464844 12.398438 8.464844 C 13.226562 8.464844 13.792969 9.332031 13.640625 10.148438 Z M 11.101562 3.042969 C 5.652344 3.042969 1.175781 7.222656 0.707031 12.550781 C 3.050781 10.90625 6.6875 8.464844 7.664062 8.464844 C 8.492188 8.464844 9.0625 9.332031 8.910156 10.148438 L 7.105469 18.460938 C 6.960938 19.234375 6.199219 19.726562 5.433594 19.539062 C 4.738281 19.367188 4.289062 18.691406 4.410156 17.984375 L 5.839844 11.089844 L 0.667969 13.199219 C 0.667969 13.292969 0.664062 13.386719 0.664062 13.480469 C 0.664062 19.246094 5.339844 23.921875 11.101562 23.921875 C 16.867188 23.921875 21.542969 19.246094 21.542969 13.480469 C 21.542969 7.71875 16.867188 3.042969 11.101562 3.042969 "/>
</g>
<g clip-path="url(#clip2)" clip-rule="nonzero">
<path style=" stroke:none;fill-rule:nonzero;fill:rgb(100%,100%,100%);fill-opacity:1;" d="M 32.945312 1.847656 L 32.210938 1.503906 L 32.210938 11.6875 L 28.335938 11.6875 L 28.335938 1.304688 L 27.585938 1.652344 C 25.292969 2.722656 23.824219 4.976562 23.757812 7.535156 C 23.75 7.832031 23.980469 8.078125 24.273438 8.085938 C 24.570312 8.097656 24.808594 7.859375 24.816406 7.5625 C 24.863281 5.710938 25.789062 4.046875 27.28125 3.050781 L 27.28125 12.757812 L 33.269531 12.757812 L 33.269531 3.132812 C 34.753906 4.144531 35.6875 5.871094 35.734375 7.730469 L 35.734375 19.402344 C 35.6875 21.324219 34.734375 23.140625 33.269531 24.171875 L 33.269531 14.992188 L 27.28125 14.992188 L 27.28125 24.289062 C 25.875 23.304688 24.917969 21.585938 24.820312 19.773438 C 24.804688 19.476562 24.558594 19.246094 24.265625 19.265625 C 23.972656 19.28125 23.75 19.535156 23.765625 19.832031 C 23.902344 22.378906 25.402344 24.683594 27.585938 25.699219 L 28.335938 26.046875 L 28.335938 16.066406 L 32.210938 16.066406 L 32.210938 25.855469 L 32.945312 25.511719 C 35.191406 24.46875 36.703125 22.007812 36.703125 19.394531 L 36.703125 7.789062 C 36.703125 5.242188 35.226562 2.910156 32.945312 1.847656 "/>
</g>
<g clip-path="url(#clip3)" clip-rule="nonzero">
<path style=" stroke:none;fill-rule:nonzero;fill:rgb(100%,100%,100%);fill-opacity:1;" d="M 23.777344 10.660156 C 23.777344 11.519531 25.054688 11.519531 25.054688 10.660156 C 25.054688 9.800781 23.777344 9.800781 23.777344 10.660156 "/>
</g>
<g clip-path="url(#clip4)" clip-rule="nonzero">
<path style=" stroke:none;fill-rule:nonzero;fill:rgb(100%,100%,100%);fill-opacity:1;" d="M 24.417969 14.304688 C 25.261719 14.304688 25.261719 13.003906 24.417969 13.003906 C 23.570312 13.003906 23.570312 14.304688 24.417969 14.304688 "/>
</g>
<g clip-path="url(#clip5)" clip-rule="nonzero">
<path style=" stroke:none;fill-rule:nonzero;fill:rgb(100%,100%,100%);fill-opacity:1;" d="M 25.054688 16.648438 C 25.054688 15.792969 23.777344 15.789062 23.777344 16.648438 C 23.777344 17.507812 25.054688 17.507812 25.054688 16.648438 "/>
</g>
</g>
</svg>
