<svg xmlns="http://www.w3.org/2000/svg" xmlns:xlink="http://www.w3.org/1999/xlink" width="232" zoomAndPan="magnify" viewBox="0 0 174 30.000001" height="40" preserveAspectRatio="xMidYMid meet" version="1.0"><defs><g/><clipPath id="4c58d1a3a4"><path d="M 8.441406 8.710938 L 29.464844 8.710938 L 29.464844 20.324219 L 8.441406 20.324219 Z M 8.441406 8.710938 " clip-rule="nonzero"/></clipPath><clipPath id="472882d1fd"><path d="M 23.570312 13 L 38.085938 13 L 38.085938 20.558594 L 23.570312 20.558594 Z M 23.570312 13 " clip-rule="nonzero"/></clipPath><clipPath id="e4b5979e83"><path d="M 28 15 L 31 15 L 31 20.558594 L 28 20.558594 Z M 28 15 " clip-rule="nonzero"/></clipPath><clipPath id="29cc00102b"><path d="M 28 8.945312 L 31 8.945312 L 31 15 L 28 15 Z M 28 8.945312 " clip-rule="nonzero"/></clipPath><clipPath id="1135d76e05"><path d="M 23.570312 11 L 26 11 L 26 18 L 23.570312 18 Z M 23.570312 11 " clip-rule="nonzero"/></clipPath></defs><g clip-path="url(#4c58d1a3a4)"><path fill="#5e17eb" d="M 21.164062 16.9375 L 19.375 12.28125 L 20.789062 9.070312 L 24.621094 9.070312 Z M 12.824219 19.960938 L 8.992188 19.960938 L 13.78125 9.070312 L 17.613281 9.070312 Z M 29.464844 20.320312 L 25.085938 8.894531 L 25.089844 8.894531 L 25.015625 8.710938 L 20.554688 8.710938 L 19.195312 11.804688 L 18.082031 8.894531 L 18.011719 8.710938 L 13.546875 8.710938 L 8.441406 20.320312 L 12.941406 20.320312 L 12.941406 20.324219 L 19.78125 20.324219 L 19.78125 19.964844 L 13.214844 19.964844 L 17.878906 9.355469 L 18.992188 12.269531 L 19.171875 12.742188 L 20.957031 17.40625 L 21.136719 17.878906 L 21.34375 17.414062 L 24.882812 9.359375 L 29.078125 20.320312 L 29.464844 20.320312 " fill-opacity="1" fill-rule="nonzero"/></g><g clip-path="url(#472882d1fd)"><path fill="#918f8f" d="M 23.585938 20.558594 C 23.585938 20.558594 28.746094 14.242188 38.070312 13.335938 C 38.070312 13.335938 30.136719 12.113281 23.585938 18.238281 " fill-opacity="1" fill-rule="nonzero"/></g><path fill="#000000" d="M 28.933594 16.273438 L 28.933594 16.796875 C 29.558594 16.4375 30.238281 16.085938 30.96875 15.753906 L 30.96875 15.230469 C 30.238281 15.5625 29.558594 15.914062 28.933594 16.273438 " fill-opacity="1" fill-rule="nonzero"/><g clip-path="url(#e4b5979e83)"><path fill="#004aad" d="M 28.933594 16.796875 L 28.933594 20.558594 L 30.96875 19.292969 L 30.96875 15.753906 C 30.238281 16.085938 29.558594 16.4375 28.933594 16.796875 " fill-opacity="1" fill-rule="nonzero"/></g><g clip-path="url(#29cc00102b)"><path fill="#004aad" d="M 28.933594 10.46875 L 28.933594 14.273438 C 29.632812 14.011719 30.3125 13.800781 30.96875 13.636719 L 30.96875 8.945312 L 28.933594 10.46875 " fill-opacity="1" fill-rule="nonzero"/></g><g clip-path="url(#1135d76e05)"><path fill="#004aad" d="M 23.585938 13.5 L 23.585938 17.421875 C 24.253906 16.855469 24.9375 16.359375 25.617188 15.925781 L 25.617188 11.976562 L 23.585938 13.5 " fill-opacity="1" fill-rule="nonzero"/></g><g fill="#ffffff" fill-opacity="1"><g transform="translate(36.076236, 16.684731)"><g><path d="M 6.316406 -8.707031 L 4.472656 -5.964844 L 2.628906 -8.714844 L 2.621094 -8.714844 C 1.425781 -8.714844 0.464844 -7.75 0.464844 -6.558594 L 0.464844 0.0351562 C 1.65625 0.0351562 2.621094 -0.925781 2.621094 -2.121094 L 2.621094 -5.101562 L 4.472656 -2.992188 L 6.316406 -5.1875 L 6.316406 0.0351562 C 7.511719 0.0351562 8.472656 -0.925781 8.472656 -2.121094 L 8.472656 -8.707031 Z M 6.316406 -8.707031 "/></g></g></g><g fill="#ffffff" fill-opacity="1"><g transform="translate(47.358886, 16.684731)"><g><path d="M 0.464844 -6.863281 L 0.464844 0.0351562 C 1.582031 0.0351562 2.480469 -0.796875 2.480469 -1.816406 L 2.480469 -8.714844 C 1.371094 -8.714844 0.464844 -7.882812 0.464844 -6.863281 Z M 0.464844 -6.863281 "/></g></g></g><g fill="#ffffff" fill-opacity="1"><g transform="translate(52.663479, 16.684731)"><g><path d="M 2.5 -8.695312 C 1.378906 -8.695312 0.464844 -7.863281 0.464844 -6.824219 L 0.464844 -0.0195312 C 0.464844 -0.0078125 0.464844 0 0.464844 0 L 4.160156 0 C 5.195312 0 6.027344 -0.90625 6.027344 -2.039062 L 2.5 -2.039062 Z M 2.5 -8.695312 "/></g></g></g><g fill="#ffffff" fill-opacity="1"><g transform="translate(61.512338, 16.684731)"><g><path d="M 2.5 -8.695312 C 1.378906 -8.695312 0.464844 -7.863281 0.464844 -6.824219 L 0.464844 -0.0195312 C 0.464844 -0.0078125 0.464844 0 0.464844 0 L 4.160156 0 C 5.195312 0 6.027344 -0.90625 6.027344 -2.039062 L 2.5 -2.039062 Z M 2.5 -8.695312 "/></g></g></g><g fill="#ffffff" fill-opacity="1"><g transform="translate(70.361194, 16.684731)"><g><path d="M 5.074219 -7.566406 C 4.953125 -8.039062 4.703125 -8.363281 4.296875 -8.59375 C 4.074219 -8.722656 3.835938 -8.789062 3.574219 -8.789062 C 3.316406 -8.789062 3.074219 -8.722656 2.863281 -8.59375 C 2.453125 -8.363281 2.195312 -8.039062 2.082031 -7.566406 L 0.0664062 -0.0546875 C 1.113281 0.195312 2.140625 -0.371094 2.378906 -1.324219 L 2.480469 -1.742188 L 2.519531 -1.953125 L 4.628906 -1.953125 L 4.675781 -1.742188 L 4.777344 -1.324219 C 5.011719 -0.371094 6.046875 0.195312 7.085938 -0.0546875 Z M 4.304688 -3.511719 L 2.84375 -3.511719 L 3.574219 -6.324219 Z M 4.304688 -3.511719 "/></g></g></g><g fill="#ffffff" fill-opacity="1"><g transform="translate(79.885587, 16.684731)"><g><path d="M 1.824219 -8.660156 C 0.789062 -8.660156 -0.046875 -7.890625 -0.046875 -6.769531 L 2.371094 -6.769531 L 2.371094 0 C 3.492188 0 4.398438 -0.832031 4.398438 -1.863281 L 4.398438 -6.769531 L 4.945312 -6.769531 C 5.984375 -6.769531 6.816406 -7.539062 6.816406 -8.660156 Z M 1.824219 -8.660156 "/></g></g></g><g fill="#ffffff" fill-opacity="1"><g transform="translate(88.992062, 16.684731)"><g/></g></g><g fill="#ffffff" fill-opacity="1"><g transform="translate(87.853556, 15.888484)"><g><path d="M 2.953125 -2.464844 L 2.683594 -2.621094 L 2.683594 -4.417969 C 2.683594 -4.59375 2.710938 -4.75 2.527344 -4.761719 C 2.398438 -4.777344 1.992188 -4.78125 1.929688 -4.722656 C 1.898438 -4.6875 1.882812 -4.59375 1.882812 -4.421875 C 1.875 -4.289062 1.875 -4.085938 1.875 -3.820312 L 1.875 -3.21875 C 1.875 -3.019531 1.890625 -2.8125 1.6875 -2.789062 C 1.511719 -2.765625 1.273438 -2.765625 1.191406 -2.839844 C 1.117188 -2.914062 1.132812 -3.046875 1.132812 -3.265625 L 1.132812 -4.390625 C 1.132812 -4.59375 1.160156 -4.75 0.976562 -4.761719 C 0.847656 -4.777344 0.441406 -4.78125 0.371094 -4.722656 C 0.339844 -4.6875 0.324219 -4.59375 0.324219 -4.421875 L 0.324219 -2.621094 L 0.0546875 -2.464844 C 0.0195312 -2.445312 0 -2.410156 0 -2.371094 C 0 -2.324219 0.0195312 -2.296875 0.0546875 -2.277344 L 0.324219 -2.121094 L 0.324219 -0.433594 C 0.324219 -0.191406 0.324219 -0.101562 0.371094 -0.046875 C 0.425781 0.0078125 0.542969 0 0.773438 0 C 1.105469 0 1.132812 -0.0273438 1.132812 -0.34375 L 1.132812 -1.578125 C 1.132812 -1.769531 1.109375 -1.945312 1.308594 -1.957031 C 1.503906 -1.972656 1.796875 -2 1.847656 -1.808594 C 1.871094 -1.742188 1.875 -1.644531 1.875 -1.53125 L 1.882812 -0.351562 C 1.882812 -0.167969 1.863281 -0.0195312 2.03125 -0.0078125 C 2.09375 0 2.179688 0 2.296875 0 C 2.664062 0 2.683594 -0.0117188 2.683594 -0.371094 L 2.683594 -2.121094 L 2.953125 -2.277344 C 2.988281 -2.296875 3.007812 -2.324219 3.007812 -2.371094 C 3.007812 -2.410156 2.988281 -2.445312 2.953125 -2.464844 Z M 2.953125 -2.464844 "/></g></g></g><g fill="#ffffff" fill-opacity="1"><g transform="translate(92.880091, 15.888484)"><g><path d="M 2.683594 -1.109375 L 2.683594 -4.371094 C 2.683594 -4.550781 2.695312 -4.722656 2.546875 -4.734375 C 2.453125 -4.742188 2.34375 -4.742188 2.230469 -4.742188 C 1.890625 -4.742188 1.882812 -4.734375 1.882812 -4.402344 L 1.882812 -1.410156 C 1.882812 -1.097656 1.835938 -0.800781 1.53125 -0.746094 C 1.289062 -0.710938 1.152344 -0.960938 1.144531 -1.136719 C 1.136719 -1.210938 1.136719 -1.300781 1.136719 -1.402344 L 1.136719 -4.316406 C 1.136719 -4.566406 1.164062 -4.722656 0.980469 -4.734375 C 0.847656 -4.75 0.460938 -4.753906 0.386719 -4.6875 C 0.351562 -4.652344 0.339844 -4.550781 0.339844 -4.390625 L 0.339844 -1.238281 C 0.339844 -1.082031 0.367188 -0.886719 0.421875 -0.65625 C 0.445312 -0.5625 0.496094 -0.472656 0.546875 -0.394531 C 0.914062 0.0820312 1.46875 0.175781 2.039062 -0.0195312 C 2.078125 -0.0351562 2.121094 -0.0546875 2.152344 -0.0898438 C 2.511719 -0.371094 2.695312 -0.710938 2.683594 -1.109375 Z M 2.683594 -1.109375 "/></g></g></g><g fill="#ffffff" fill-opacity="1"><g transform="translate(97.608557, 15.888484)"><g><path d="M 2.207031 -2.261719 C 2.039062 -2.460938 1.511719 -2.886719 1.382812 -3.054688 C 1.179688 -3.285156 1.097656 -3.53125 1.132812 -3.785156 C 1.179688 -4.167969 1.59375 -4.242188 1.753906 -3.882812 L 1.824219 -3.707031 C 1.847656 -3.632812 1.902344 -3.597656 1.984375 -3.597656 C 2.148438 -3.597656 2.324219 -3.632812 2.507812 -3.691406 C 2.574219 -3.71875 2.609375 -3.757812 2.59375 -3.839844 C 2.527344 -4.410156 2.078125 -5.074219 1.082031 -4.824219 C 0.648438 -4.714844 0.320312 -4.335938 0.277344 -3.808594 C 0.242188 -3.351562 0.394531 -2.941406 0.71875 -2.585938 L 1.328125 -1.984375 C 1.679688 -1.625 1.824219 -1.566406 1.816406 -1.164062 C 1.816406 -0.980469 1.679688 -0.804688 1.515625 -0.765625 C 1.347656 -0.726562 1.210938 -0.800781 1.105469 -0.988281 C 1.070312 -1.058594 1.058594 -1.097656 1.035156 -1.179688 C 1.03125 -1.226562 1.015625 -1.253906 1.015625 -1.265625 C 0.976562 -1.410156 0.929688 -1.449219 0.792969 -1.441406 C 0.71875 -1.441406 0.5625 -1.421875 0.339844 -1.390625 C 0.195312 -1.367188 0.214844 -1.199219 0.230469 -1.097656 C 0.265625 -0.875 0.359375 -0.636719 0.523438 -0.386719 C 0.574219 -0.304688 0.664062 -0.230469 0.777344 -0.15625 C 0.96875 -0.0390625 1.191406 0.0117188 1.449219 0 C 1.910156 -0.0273438 2.039062 0.0195312 2.34375 -0.339844 C 2.492188 -0.515625 2.585938 -0.710938 2.613281 -0.929688 C 2.683594 -1.421875 2.554688 -1.871094 2.207031 -2.261719 Z M 2.207031 -2.261719 "/></g></g></g><g fill="#ffffff" fill-opacity="1"><g transform="translate(102.208314, 15.888484)"><g><path d="M 2.207031 -2.261719 C 2.039062 -2.460938 1.511719 -2.886719 1.382812 -3.054688 C 1.179688 -3.285156 1.097656 -3.53125 1.132812 -3.785156 C 1.179688 -4.167969 1.59375 -4.242188 1.753906 -3.882812 L 1.824219 -3.707031 C 1.847656 -3.632812 1.902344 -3.597656 1.984375 -3.597656 C 2.148438 -3.597656 2.324219 -3.632812 2.507812 -3.691406 C 2.574219 -3.71875 2.609375 -3.757812 2.59375 -3.839844 C 2.527344 -4.410156 2.078125 -5.074219 1.082031 -4.824219 C 0.648438 -4.714844 0.320312 -4.335938 0.277344 -3.808594 C 0.242188 -3.351562 0.394531 -2.941406 0.71875 -2.585938 L 1.328125 -1.984375 C 1.679688 -1.625 1.824219 -1.566406 1.816406 -1.164062 C 1.816406 -0.980469 1.679688 -0.804688 1.515625 -0.765625 C 1.347656 -0.726562 1.210938 -0.800781 1.105469 -0.988281 C 1.070312 -1.058594 1.058594 -1.097656 1.035156 -1.179688 C 1.03125 -1.226562 1.015625 -1.253906 1.015625 -1.265625 C 0.976562 -1.410156 0.929688 -1.449219 0.792969 -1.441406 C 0.71875 -1.441406 0.5625 -1.421875 0.339844 -1.390625 C 0.195312 -1.367188 0.214844 -1.199219 0.230469 -1.097656 C 0.265625 -0.875 0.359375 -0.636719 0.523438 -0.386719 C 0.574219 -0.304688 0.664062 -0.230469 0.777344 -0.15625 C 0.96875 -0.0390625 1.191406 0.0117188 1.449219 0 C 1.910156 -0.0273438 2.039062 0.0195312 2.34375 -0.339844 C 2.492188 -0.515625 2.585938 -0.710938 2.613281 -0.929688 C 2.683594 -1.421875 2.554688 -1.871094 2.207031 -2.261719 Z M 2.207031 -2.261719 "/></g></g></g><g fill="#ffffff" fill-opacity="1"><g transform="translate(106.808071, 15.888484)"><g><path d="M 2.851562 -0.40625 C 2.84375 -0.460938 2.363281 -3.300781 2.175781 -4.421875 C 2.152344 -4.53125 2.128906 -4.652344 2.078125 -4.703125 C 2.050781 -4.722656 2 -4.734375 1.929688 -4.742188 L 1.3125 -4.742188 C 1.097656 -4.742188 1.042969 -4.703125 1.003906 -4.476562 C 0.941406 -4.105469 0.460938 -1.273438 0.296875 -0.351562 C 0.269531 -0.15625 0.222656 -0.0117188 0.414062 -0.0078125 C 0.554688 0 0.730469 0 0.941406 -0.0078125 C 1.035156 -0.0078125 1.089844 -0.0546875 1.109375 -0.15625 C 1.164062 -0.46875 1.199219 -0.648438 1.207031 -0.703125 C 1.246094 -1.050781 1.300781 -1.0625 1.652344 -1.0625 C 1.652344 -1.0625 1.671875 -1.0625 1.707031 -1.058594 C 1.945312 -1.050781 1.957031 -0.726562 1.964844 -0.65625 C 1.976562 -0.601562 1.984375 -0.523438 2 -0.421875 C 2.027344 -0.203125 2.03125 -0.101562 2.09375 -0.046875 C 2.121094 -0.0195312 2.160156 -0.0078125 2.230469 0 C 2.28125 0 2.765625 0.0195312 2.824219 -0.0390625 C 2.878906 -0.0898438 2.886719 -0.210938 2.851562 -0.40625 Z M 1.789062 -1.898438 C 1.773438 -1.808594 1.394531 -1.800781 1.394531 -1.902344 C 1.394531 -1.925781 1.394531 -1.957031 1.402344 -1.992188 C 1.421875 -2.277344 1.464844 -2.484375 1.511719 -2.613281 C 1.539062 -2.664062 1.613281 -2.6875 1.652344 -2.613281 C 1.671875 -2.574219 1.6875 -2.539062 1.695312 -2.511719 C 1.695312 -2.492188 1.769531 -2.132812 1.78125 -2.011719 C 1.789062 -1.949219 1.789062 -1.910156 1.789062 -1.898438 Z M 1.789062 -1.898438 "/></g></g></g><g fill="#ffffff" fill-opacity="1"><g transform="translate(111.672027, 15.888484)"><g><path d="M 1.132812 -0.34375 L 1.132812 -4.355469 C 1.132812 -4.585938 1.160156 -4.734375 0.976562 -4.753906 C 0.847656 -4.761719 0.441406 -4.777344 0.371094 -4.707031 C 0.34375 -4.679688 0.332031 -4.578125 0.332031 -4.417969 L 0.332031 -0.378906 C 0.332031 -0.191406 0.3125 -0.0195312 0.496094 -0.0078125 C 0.5625 0 0.65625 0 0.785156 0 C 1.117188 0 1.132812 -0.0078125 1.132812 -0.34375 Z M 1.132812 -0.34375 "/></g></g></g><g fill="#ffffff" fill-opacity="1"><g transform="translate(114.781435, 15.888484)"><g><path d="M 2.898438 -0.371094 L 2.898438 -4.417969 C 2.898438 -4.574219 2.914062 -4.742188 2.769531 -4.75 C 2.667969 -4.761719 2.5625 -4.761719 2.445312 -4.761719 C 2.113281 -4.761719 2.101562 -4.75 2.101562 -4.417969 C 2.101562 -4.445312 2.101562 -3.957031 2.09375 -2.945312 C 2.09375 -2.722656 2.101562 -2.703125 2.058594 -2.574219 C 2.046875 -2.492188 1.945312 -2.480469 1.910156 -2.5625 C 1.898438 -2.585938 1.882812 -2.621094 1.871094 -2.664062 C 1.800781 -2.90625 1.550781 -3.738281 1.441406 -4.097656 C 1.429688 -4.160156 1.402344 -4.246094 1.367188 -4.355469 C 1.328125 -4.476562 1.300781 -4.566406 1.289062 -4.613281 C 1.261719 -4.707031 1.199219 -4.753906 1.117188 -4.753906 L 0.472656 -4.753906 C 0.320312 -4.75 0.332031 -4.585938 0.332031 -4.375 L 0.332031 -0.414062 C 0.332031 -0.195312 0.304688 -0.0273438 0.515625 0 L 0.75 0 C 1.132812 0 1.136719 0 1.136719 -0.367188 L 1.136719 -1.835938 C 1.136719 -1.976562 1.144531 -2.074219 1.164062 -2.128906 C 1.199219 -2.207031 1.289062 -2.230469 1.328125 -2.148438 L 1.410156 -1.925781 C 1.394531 -1.957031 1.566406 -1.441406 1.910156 -0.367188 L 1.945312 -0.269531 C 1.964844 -0.222656 1.972656 -0.191406 1.976562 -0.164062 C 2.046875 0.046875 2.359375 0 2.519531 0 C 2.878906 0 2.898438 -0.0117188 2.898438 -0.371094 Z M 2.898438 -0.371094 "/></g></g></g><g fill="#ffffff" fill-opacity="1"><g transform="translate(36.566492, 22.42399)"><g><path d="M 3.203125 -2.644531 L 2.742188 -1.042969 L 2.449219 -2.0625 L 2.753906 -3.046875 C 2.382812 -3.164062 2 -2.980469 1.894531 -2.644531 L 1.4375 -1.019531 L 0.980469 -2.644531 C 0.875 -2.980469 0.488281 -3.164062 0.121094 -3.046875 L 0.9375 -0.40625 C 0.972656 -0.300781 1.039062 -0.203125 1.121094 -0.132812 C 1.207031 -0.0546875 1.316406 0 1.4375 0 C 1.558594 0 1.667969 -0.0546875 1.757812 -0.132812 C 1.839844 -0.203125 1.90625 -0.300781 1.9375 -0.40625 L 2.089844 -0.898438 L 2.242188 -0.40625 C 2.277344 -0.300781 2.339844 -0.203125 2.421875 -0.132812 C 2.511719 -0.0546875 2.621094 0 2.742188 0 C 2.863281 0 2.972656 -0.0546875 3.0625 -0.132812 C 3.144531 -0.203125 3.207031 -0.300781 3.242188 -0.40625 L 4.058594 -3.046875 C 3.691406 -3.164062 3.308594 -2.980469 3.203125 -2.644531 Z M 3.203125 -2.644531 "/></g></g></g><g fill="#ffffff" fill-opacity="1"><g transform="translate(41.522496, 22.42399)"><g><path d="M 0.84375 -1.226562 L 1.554688 -1.226562 L 1.714844 -1.90625 L 0.84375 -1.90625 L 0.84375 -2.371094 L 1.503906 -2.371094 C 1.90625 -2.371094 2.171875 -2.699219 2.171875 -3.101562 L 0.839844 -3.101562 C 0.445312 -3.101562 0.128906 -2.78125 0.128906 -2.390625 L 0.128906 -0.703125 C 0.128906 -0.320312 0.441406 -0.0078125 0.824219 -0.0078125 L 1.300781 -0.0078125 C 1.703125 -0.0078125 2.011719 -0.332031 2.011719 -0.734375 L 0.84375 -0.734375 Z M 0.84375 -1.226562 "/></g></g></g><g fill="#ffffff" fill-opacity="1"><g transform="translate(44.658999, 22.42399)"><g><path d="M 2 -1.710938 C 2.085938 -1.855469 2.148438 -1.847656 2.148438 -2.292969 C 2.148438 -2.738281 1.710938 -3.101562 1.308594 -3.101562 L 0.816406 -3.101562 C 0.8125 -3.101562 0.800781 -3.101562 0.792969 -3.101562 C 0.40625 -3.082031 0.164062 -2.789062 0.164062 -2.429688 L 0.164062 0.0117188 C 0.320312 0.0117188 0.457031 -0.03125 0.5625 -0.101562 C 0.640625 -0.0507812 0.742188 -0.0117188 0.886719 -0.0117188 L 1.515625 -0.0117188 C 1.992188 -0.0117188 2.257812 -0.484375 2.257812 -0.855469 L 2.257812 -1.132812 C 2.257812 -1.363281 2.175781 -1.566406 2 -1.710938 Z M 1.621094 -0.875 C 1.621094 -0.730469 1.5 -0.625 1.367188 -0.617188 L 0.824219 -0.617188 C 0.824219 -0.625 0.824219 -0.628906 0.824219 -0.640625 L 0.824219 -1.300781 L 1.367188 -1.300781 C 1.5 -1.308594 1.621094 -1.1875 1.621094 -1.042969 Z M 1.289062 -2.503906 C 1.40625 -2.503906 1.515625 -2.40625 1.515625 -2.289062 L 1.515625 -2.074219 C 1.515625 -1.957031 1.421875 -1.863281 1.308594 -1.863281 L 0.824219 -1.863281 L 0.824219 -2.503906 Z M 1.289062 -2.503906 "/></g></g></g><g fill="#ffffff" fill-opacity="1"><g transform="translate(47.91045, 22.42399)"><g/></g></g><g fill="#ffffff" fill-opacity="1"><g transform="translate(49.723378, 22.42399)"><g><path d="M 1.269531 -3.128906 L 0.847656 -3.128906 C 0.847656 -3.128906 0.847656 -3.128906 0.84375 -3.128906 L 0.773438 -3.128906 L 0.773438 -3.125 C 0.40625 -3.089844 0.164062 -2.800781 0.164062 -2.453125 L 0.164062 0.0117188 C 0.164062 0.0117188 0.167969 0.0117188 0.167969 0.0117188 L 1.269531 0.0117188 C 1.914062 0.0117188 2.40625 -0.464844 2.40625 -1.035156 L 2.40625 -1.992188 C 2.40625 -2.714844 1.914062 -3.128906 1.269531 -3.128906 Z M 1.742188 -1.140625 C 1.742188 -0.878906 1.53125 -0.648438 1.269531 -0.648438 L 0.847656 -0.648438 C 0.847656 -0.65625 0.847656 -0.660156 0.847656 -0.667969 L 0.847656 -2.464844 L 1.269531 -2.464844 C 1.53125 -2.464844 1.742188 -2.238281 1.742188 -1.972656 Z M 1.742188 -1.140625 "/></g></g></g><g fill="#ffffff" fill-opacity="1"><g transform="translate(53.135759, 22.42399)"><g><path d="M 0.84375 -1.226562 L 1.554688 -1.226562 L 1.714844 -1.90625 L 0.84375 -1.90625 L 0.84375 -2.371094 L 1.503906 -2.371094 C 1.90625 -2.371094 2.171875 -2.699219 2.171875 -3.101562 L 0.839844 -3.101562 C 0.445312 -3.101562 0.128906 -2.78125 0.128906 -2.390625 L 0.128906 -0.703125 C 0.128906 -0.320312 0.441406 -0.0078125 0.824219 -0.0078125 L 1.300781 -0.0078125 C 1.703125 -0.0078125 2.011719 -0.332031 2.011719 -0.734375 L 0.84375 -0.734375 Z M 0.84375 -1.226562 "/></g></g></g><g fill="#ffffff" fill-opacity="1"><g transform="translate(56.272263, 22.42399)"><g><path d="M 1.761719 -2.632812 L 1.304688 -0.972656 L 0.851562 -2.632812 C 0.746094 -2.96875 0.363281 -3.148438 -0.00390625 -3.039062 L 0.808594 -0.414062 C 0.839844 -0.304688 0.90625 -0.214844 0.988281 -0.140625 C 1.078125 -0.0625 1.183594 -0.0078125 1.304688 -0.0078125 C 1.425781 -0.0078125 1.535156 -0.0625 1.621094 -0.140625 C 1.703125 -0.214844 1.765625 -0.304688 1.800781 -0.414062 L 2.613281 -3.039062 C 2.246094 -3.148438 1.867188 -2.96875 1.761719 -2.632812 Z M 1.761719 -2.632812 "/></g></g></g><g fill="#ffffff" fill-opacity="1"><g transform="translate(59.714203, 22.42399)"><g><path d="M 0.84375 -1.226562 L 1.554688 -1.226562 L 1.714844 -1.90625 L 0.84375 -1.90625 L 0.84375 -2.371094 L 1.503906 -2.371094 C 1.90625 -2.371094 2.171875 -2.699219 2.171875 -3.101562 L 0.839844 -3.101562 C 0.445312 -3.101562 0.128906 -2.78125 0.128906 -2.390625 L 0.128906 -0.703125 C 0.128906 -0.320312 0.441406 -0.0078125 0.824219 -0.0078125 L 1.300781 -0.0078125 C 1.703125 -0.0078125 2.011719 -0.332031 2.011719 -0.734375 L 0.84375 -0.734375 Z M 0.84375 -1.226562 "/></g></g></g><g fill="#ffffff" fill-opacity="1"><g transform="translate(62.850707, 22.42399)"><g><path d="M 0.886719 -3.09375 C 0.488281 -3.09375 0.164062 -2.792969 0.164062 -2.429688 L 0.164062 -0.0117188 C 0.164062 -0.0117188 0.164062 -0.0117188 0.164062 -0.0078125 L 1.476562 -0.0078125 C 1.84375 -0.0078125 2.136719 -0.332031 2.136719 -0.730469 L 0.886719 -0.730469 Z M 0.886719 -3.09375 "/></g></g></g><g fill="#ffffff" fill-opacity="1"><g transform="translate(65.993775, 22.42399)"><g><path d="M 2.367188 -2.816406 C 2.347656 -2.859375 2.316406 -2.902344 2.269531 -2.941406 C 2.144531 -3.0625 1.96875 -3.125 1.785156 -3.140625 C 1.671875 -3.148438 1.347656 -3.15625 1.222656 -3.15625 C 1.085938 -3.15625 0.964844 -3.148438 0.847656 -3.140625 C 0.472656 -3.105469 0.164062 -2.839844 0.164062 -2.472656 L 0.164062 -0.628906 C 0.164062 -0.503906 0.199219 -0.386719 0.261719 -0.285156 C 0.28125 -0.242188 0.316406 -0.199219 0.359375 -0.160156 C 0.484375 -0.0390625 0.660156 0.0195312 0.847656 0.0351562 C 0.960938 0.046875 1.078125 0.0507812 1.203125 0.0507812 C 1.335938 0.0507812 1.664062 0.046875 1.785156 0.0351562 C 2.15625 0 2.464844 -0.261719 2.464844 -0.628906 L 2.464844 -2.472656 C 2.464844 -2.601562 2.429688 -2.714844 2.367188 -2.816406 Z M 1.785156 -0.839844 C 1.765625 -0.738281 1.699219 -0.667969 1.59375 -0.667969 L 1.589844 -0.664062 L 1.039062 -0.664062 C 0.929688 -0.664062 0.863281 -0.738281 0.847656 -0.839844 L 0.847656 -2.28125 C 0.863281 -2.382812 0.929688 -2.457031 1.039062 -2.457031 L 1.59375 -2.457031 C 1.699219 -2.457031 1.765625 -2.382812 1.785156 -2.28125 Z M 1.785156 -0.839844 "/></g></g></g><g fill="#ffffff" fill-opacity="1"><g transform="translate(69.458706, 22.42399)"><g><path d="M 2.351562 -2.488281 C 2.300781 -2.625 2.222656 -2.738281 2.128906 -2.835938 C 2.03125 -2.925781 1.910156 -3 1.773438 -3.042969 C 1.636719 -3.09375 1.484375 -3.121094 1.3125 -3.121094 L 0.867188 -3.121094 C 0.53125 -3.121094 0.164062 -2.800781 0.164062 -2.414062 L 0.164062 -0.0078125 C 0.574219 -0.0078125 0.910156 -0.394531 0.910156 -0.871094 L 0.910156 -0.898438 L 1.277344 -0.898438 C 1.441406 -0.898438 1.597656 -0.917969 1.738281 -0.96875 C 1.882812 -1.015625 2.003906 -1.085938 2.105469 -1.179688 C 2.207031 -1.273438 2.285156 -1.390625 2.34375 -1.53125 C 2.402344 -1.671875 2.429688 -1.832031 2.429688 -2.015625 L 2.429688 -2.027344 C 2.429688 -2.195312 2.402344 -2.351562 2.351562 -2.488281 Z M 1.6875 -1.980469 C 1.6875 -1.851562 1.648438 -1.753906 1.574219 -1.679688 C 1.496094 -1.609375 1.390625 -1.574219 1.261719 -1.574219 L 0.910156 -1.574219 L 0.910156 -2.398438 L 1.257812 -2.398438 C 1.390625 -2.398438 1.496094 -2.363281 1.574219 -2.292969 C 1.648438 -2.222656 1.6875 -2.121094 1.6875 -1.988281 Z M 1.6875 -1.980469 "/></g></g></g><g fill="#ffffff" fill-opacity="1"><g transform="translate(72.890792, 22.42399)"><g><path d="M 0.84375 -1.226562 L 1.554688 -1.226562 L 1.714844 -1.90625 L 0.84375 -1.90625 L 0.84375 -2.371094 L 1.503906 -2.371094 C 1.90625 -2.371094 2.171875 -2.699219 2.171875 -3.101562 L 0.839844 -3.101562 C 0.445312 -3.101562 0.128906 -2.78125 0.128906 -2.390625 L 0.128906 -0.703125 C 0.128906 -0.320312 0.441406 -0.0078125 0.824219 -0.0078125 L 1.300781 -0.0078125 C 1.703125 -0.0078125 2.011719 -0.332031 2.011719 -0.734375 L 0.84375 -0.734375 Z M 0.84375 -1.226562 "/></g></g></g><g fill="#ffffff" fill-opacity="1"><g transform="translate(76.027296, 22.42399)"><g><path d="M 1.875 -1.039062 C 1.953125 -1.082031 2.027344 -1.128906 2.09375 -1.191406 C 2.195312 -1.289062 2.277344 -1.40625 2.335938 -1.546875 C 2.390625 -1.683594 2.421875 -1.847656 2.421875 -2.03125 L 2.421875 -2.042969 C 2.421875 -2.21875 2.394531 -2.371094 2.339844 -2.507812 C 2.289062 -2.648438 2.214844 -2.761719 2.113281 -2.855469 C 2.015625 -2.953125 1.898438 -3.023438 1.761719 -3.074219 C 1.621094 -3.125 1.464844 -3.144531 1.292969 -3.144531 L 0.84375 -3.144531 C 0.503906 -3.144531 0.132812 -2.828125 0.132812 -2.433594 L 0.132812 -0.0078125 C 0.546875 -0.0078125 0.886719 -0.398438 0.886719 -0.875 L 0.886719 -0.902344 L 1.195312 -0.902344 L 1.601562 -0.300781 C 1.808594 0.0117188 2.179688 0.0820312 2.488281 -0.125 Z M 0.886719 -1.585938 L 0.886719 -2.421875 L 1.238281 -2.421875 C 1.371094 -2.421875 1.480469 -2.382812 1.558594 -2.316406 C 1.632812 -2.242188 1.671875 -2.140625 1.671875 -2.007812 L 1.671875 -1.996094 C 1.671875 -1.867188 1.632812 -1.769531 1.558594 -1.695312 C 1.480469 -1.621094 1.375 -1.585938 1.242188 -1.585938 Z M 0.886719 -1.585938 "/></g></g></g><g fill="#ffffff" fill-opacity="1"><g transform="translate(58.008376, 26.803027)"><g/></g></g></svg>